v 0 0 0
v 0.9 0 0.0
v 0.831491579260158 0 0.3444150891285808
v 0.6363961030678928 0 0.6363961030678928
v 0.3444150891285809 0 0.831491579260158
v 5.5109105961630896e-17 0 0.9
v -0.34441508912858076 0 0.831491579260158
v -0.6363961030678927 0 0.6363961030678928
v -0.831491579260158 0 0.34441508912858093
v -0.9 0 1.1021821192326179e-16
v -0.8314915792601582 0 -0.3444150891285807
v -0.636396103067893 0 -0.6363961030678927
v -0.3444150891285813 0 -0.8314915792601579
v -1.6532731788489269e-16 0 -0.9
v 0.344415089128581 0 -0.8314915792601579
v 0.6363961030678926 0 -0.636396103067893
v 0.8314915792601579 0 -0.3444150891285814
v 0.0 0.2 0.0
v 0.0 0.0 0.0
v 0.9 0.2 0.0
v 0.9 0.0 0.0
v 0.831491579260158 0.2 0.3444150891285808
v 0.831491579260158 0.0 0.3444150891285808
v 0.6363961030678928 0.2 0.6363961030678928
v 0.6363961030678928 0.0 0.6363961030678928
v 0.3444150891285809 0.2 0.831491579260158
v 0.3444150891285809 0.0 0.831491579260158
v 5.5109105961630896e-17 0.2 0.9
v 5.5109105961630896e-17 0.0 0.9
v -0.34441508912858076 0.2 0.831491579260158
v -0.34441508912858076 0.0 0.831491579260158
v -0.6363961030678927 0.2 0.6363961030678928
v -0.6363961030678927 0.0 0.6363961030678928
v -0.831491579260158 0.2 0.34441508912858093
v -0.831491579260158 0.0 0.34441508912858093
v -0.9 0.2 1.1021821192326179e-16
v -0.9 0.0 1.1021821192326179e-16
v -0.8314915792601582 0.2 -0.3444150891285807
v -0.8314915792601582 0.0 -0.3444150891285807
v -0.636396103067893 0.2 -0.6363961030678927
v -0.636396103067893 0.0 -0.6363961030678927
v -0.3444150891285813 0.2 -0.8314915792601579
v -0.3444150891285813 0.0 -0.8314915792601579
v -1.6532731788489269e-16 0.2 -0.9
v -1.6532731788489269e-16 0.0 -0.9
v 0.344415089128581 0.2 -0.8314915792601579
v 0.344415089128581 0.0 -0.8314915792601579
v 0.6363961030678926 0.2 -0.636396103067893
v 0.6363961030678926 0.0 -0.636396103067893
v 0.8314915792601579 0.2 -0.3444150891285814
v 0.8314915792601579 0.0 -0.3444150891285814
v 0.7 0.4 0.0
v 0.9 0.19999999999999998 0.0
v 0.6467156727579007 0.4 0.26787840265556284
v 0.831491579260158 0.19999999999999998 0.3444150891285808
v 0.4949747468305833 0.4 0.4949747468305833
v 0.6363961030678928 0.19999999999999998 0.6363961030678928
v 0.26787840265556284 0.4 0.6467156727579007
v 0.3444150891285809 0.19999999999999998 0.831491579260158
v 4.286263797015736e-17 0.4 0.7
v 5.5109105961630896e-17 0.19999999999999998 0.9
v -0.2678784026555628 0.4 0.6467156727579007
v -0.34441508912858076 0.19999999999999998 0.831491579260158
v -0.4949747468305832 0.4 0.4949747468305833
v -0.6363961030678927 0.19999999999999998 0.6363961030678928
v -0.6467156727579007 0.4 0.2678784026555629
v -0.831491579260158 0.19999999999999998 0.34441508912858093
v -0.7 0.4 8.572527594031472e-17
v -0.9 0.19999999999999998 1.1021821192326179e-16
v -0.6467156727579008 0.4 -0.26787840265556273
v -0.8314915792601582 0.19999999999999998 -0.3444150891285807
v -0.49497474683058335 0.4 -0.4949747468305832
v -0.636396103067893 0.19999999999999998 -0.6363961030678927
v -0.26787840265556323 0.4 -0.6467156727579005
v -0.3444150891285813 0.19999999999999998 -0.8314915792601579
v -1.2858791391047207e-16 0.4 -0.7
v -1.6532731788489269e-16 0.19999999999999998 -0.9
v 0.267878402655563 0.4 -0.6467156727579007
v 0.344415089128581 0.19999999999999998 -0.8314915792601579
v 0.4949747468305831 0.4 -0.49497474683058335
v 0.6363961030678926 0.19999999999999998 -0.636396103067893
v 0.6467156727579005 0.4 -0.26787840265556323
v 0.8314915792601579 0.19999999999999998 -0.3444150891285814
v 0.0 0.5499999999999999 0.0
v 0.0 0.39999999999999997 0.0
v 0.7 0.5499999999999999 0.0
v 0.7 0.39999999999999997 0.0
v 0.6467156727579007 0.5499999999999999 0.26787840265556284
v 0.6467156727579007 0.39999999999999997 0.26787840265556284
v 0.4949747468305833 0.5499999999999999 0.4949747468305833
v 0.4949747468305833 0.39999999999999997 0.4949747468305833
v 0.26787840265556284 0.5499999999999999 0.6467156727579007
v 0.26787840265556284 0.39999999999999997 0.6467156727579007
v 4.286263797015736e-17 0.5499999999999999 0.7
v 4.286263797015736e-17 0.39999999999999997 0.7
v -0.2678784026555628 0.5499999999999999 0.6467156727579007
v -0.2678784026555628 0.39999999999999997 0.6467156727579007
v -0.4949747468305832 0.5499999999999999 0.4949747468305833
v -0.4949747468305832 0.39999999999999997 0.4949747468305833
v -0.6467156727579007 0.5499999999999999 0.2678784026555629
v -0.6467156727579007 0.39999999999999997 0.2678784026555629
v -0.7 0.5499999999999999 8.572527594031472e-17
v -0.7 0.39999999999999997 8.572527594031472e-17
v -0.6467156727579008 0.5499999999999999 -0.26787840265556273
v -0.6467156727579008 0.39999999999999997 -0.26787840265556273
v -0.49497474683058335 0.5499999999999999 -0.4949747468305832
v -0.49497474683058335 0.39999999999999997 -0.4949747468305832
v -0.26787840265556323 0.5499999999999999 -0.6467156727579005
v -0.26787840265556323 0.39999999999999997 -0.6467156727579005
v -1.2858791391047207e-16 0.5499999999999999 -0.7
v -1.2858791391047207e-16 0.39999999999999997 -0.7
v 0.267878402655563 0.5499999999999999 -0.6467156727579007
v 0.267878402655563 0.39999999999999997 -0.6467156727579007
v 0.4949747468305831 0.5499999999999999 -0.49497474683058335
v 0.4949747468305831 0.39999999999999997 -0.49497474683058335
v 0.6467156727579005 0.5499999999999999 -0.26787840265556323
v 0.6467156727579005 0.39999999999999997 -0.26787840265556323
v 0.35 2.7 0.0
v 0.65 0.5 0.0
v 0.3233578363789503 2.7 0.13393920132778142
v 0.6005216961323364 0.5 0.24874423103730836
v 0.24748737341529164 2.7 0.24748737341529164
v 0.45961940777125593 0.5 0.45961940777125593
v 0.13393920132778142 2.7 0.3233578363789503
v 0.24874423103730842 0.5 0.6005216961323364
v 2.143131898507868e-17 2.7 0.35
v 3.9801020972288984e-17 0.5 0.65
v -0.1339392013277814 2.7 0.3233578363789503
v -0.24874423103730833 0.5 0.6005216961323364
v -0.2474873734152916 2.7 0.24748737341529164
v -0.4596194077712559 0.5 0.45961940777125593
v -0.3233578363789503 2.7 0.13393920132778145
v -0.6005216961323364 0.5 0.24874423103730844
v -0.35 2.7 4.286263797015736e-17
v -0.65 0.5 7.960204194457797e-17
v -0.3233578363789504 2.7 -0.13393920132778137
v -0.6005216961323365 0.5 -0.2487442310373083
v -0.24748737341529167 2.7 -0.2474873734152916
v -0.459619407771256 0.5 -0.4596194077712559
v -0.13393920132778162 2.7 -0.32335783637895027
v -0.24874423103730872 0.5 -0.6005216961323363
v -6.429395695523604e-17 2.7 -0.35
v -1.1940306291686693e-16 0.5 -0.65
v 0.1339392013277815 2.7 -0.3233578363789503
v 0.2487442310373085 0.5 -0.6005216961323363
v 0.24748737341529156 2.7 -0.24748737341529167
v 0.4596194077712558 0.5 -0.459619407771256
v 0.32335783637895027 2.7 -0.13393920132778162
v 0.6005216961323363 0.5 -0.24874423103730878
v 0.0 2.83 0.0
v 0.0 2.6799999999999997 0.0
v 0.45 2.83 0.0
v 0.45 2.6799999999999997 0.0
v 0.415745789630079 2.83 0.1722075445642904
v 0.415745789630079 2.6799999999999997 0.1722075445642904
v 0.3181980515339464 2.83 0.3181980515339464
v 0.3181980515339464 2.6799999999999997 0.3181980515339464
v 0.17220754456429044 2.83 0.415745789630079
v 0.17220754456429044 2.6799999999999997 0.415745789630079
v 2.7554552980815448e-17 2.83 0.45
v 2.7554552980815448e-17 2.6799999999999997 0.45
v -0.17220754456429038 2.83 0.415745789630079
v -0.17220754456429038 2.6799999999999997 0.415745789630079
v -0.31819805153394637 2.83 0.3181980515339464
v -0.31819805153394637 2.6799999999999997 0.3181980515339464
v -0.415745789630079 2.83 0.17220754456429047
v -0.415745789630079 2.6799999999999997 0.17220754456429047
v -0.45 2.83 5.5109105961630896e-17
v -0.45 2.6799999999999997 5.5109105961630896e-17
v -0.4157457896300791 2.83 -0.17220754456429035
v -0.4157457896300791 2.6799999999999997 -0.17220754456429035
v -0.3181980515339465 2.83 -0.31819805153394637
v -0.3181980515339465 2.6799999999999997 -0.31819805153394637
v -0.17220754456429066 2.83 -0.41574578963007897
v -0.17220754456429066 2.6799999999999997 -0.41574578963007897
v -8.266365894244634e-17 2.83 -0.45
v -8.266365894244634e-17 2.6799999999999997 -0.45
v 0.1722075445642905 2.83 -0.41574578963007897
v 0.1722075445642905 2.6799999999999997 -0.41574578963007897
v 0.3181980515339463 2.83 -0.3181980515339465
v 0.3181980515339463 2.6799999999999997 -0.3181980515339465
v 0.41574578963007897 2.83 -0.1722075445642907
v 0.41574578963007897 2.6799999999999997 -0.1722075445642907
v 0.6 3.31 0.0
v 0.35 2.81 0.0
v 0.5543277195067721 3.31 0.22961005941905385
v 0.3233578363789503 2.81 0.13393920132778142
v 0.4242640687119285 3.31 0.4242640687119285
v 0.24748737341529164 2.81 0.24748737341529164
v 0.22961005941905388 3.31 0.5543277195067721
v 0.13393920132778142 2.81 0.3233578363789503
v 3.6739403974420595e-17 3.31 0.6
v 2.143131898507868e-17 2.81 0.35
v -0.22961005941905382 3.31 0.5543277195067721
v -0.1339392013277814 2.81 0.3233578363789503
v -0.42426406871192845 3.31 0.4242640687119285
v -0.2474873734152916 2.81 0.24748737341529164
v -0.5543277195067721 3.31 0.22961005941905394
v -0.3233578363789503 2.81 0.13393920132778145
v -0.6 3.31 7.347880794884119e-17
v -0.35 2.81 4.286263797015736e-17
v -0.5543277195067721 3.31 -0.2296100594190538
v -0.3233578363789504 2.81 -0.13393920132778137
v -0.4242640687119286 3.31 -0.42426406871192845
v -0.24748737341529167 2.81 -0.2474873734152916
v -0.22961005941905419 3.31 -0.5543277195067718
v -0.13393920132778162 2.81 -0.32335783637895027
v -1.1021821192326178e-16 3.31 -0.6
v -6.429395695523604e-17 2.81 -0.35
v 0.229610059419054 3.31 -0.554327719506772
v 0.1339392013277815 2.81 -0.3233578363789503
v 0.4242640687119284 3.31 -0.4242640687119286
v 0.24748737341529156 2.81 -0.24748737341529167
v 0.5543277195067718 3.31 -0.2296100594190542
v 0.32335783637895027 2.81 -0.13393920132778162
v 0.0 3.335 0.0
v 0.0 3.285 0.0
v 0.6 3.335 0.0
v 0.6 3.285 0.0
v 0.5543277195067721 3.335 0.22961005941905385
v 0.5543277195067721 3.285 0.22961005941905385
v 0.4242640687119285 3.335 0.4242640687119285
v 0.4242640687119285 3.285 0.4242640687119285
v 0.22961005941905388 3.335 0.5543277195067721
v 0.22961005941905388 3.285 0.5543277195067721
v 3.6739403974420595e-17 3.335 0.6
v 3.6739403974420595e-17 3.285 0.6
v -0.22961005941905382 3.335 0.5543277195067721
v -0.22961005941905382 3.285 0.5543277195067721
v -0.42426406871192845 3.335 0.4242640687119285
v -0.42426406871192845 3.285 0.4242640687119285
v -0.5543277195067721 3.335 0.22961005941905394
v -0.5543277195067721 3.285 0.22961005941905394
v -0.6 3.335 7.347880794884119e-17
v -0.6 3.285 7.347880794884119e-17
v -0.5543277195067721 3.335 -0.2296100594190538
v -0.5543277195067721 3.285 -0.2296100594190538
v -0.4242640687119286 3.335 -0.42426406871192845
v -0.4242640687119286 3.285 -0.42426406871192845
v -0.22961005941905419 3.335 -0.5543277195067718
v -0.22961005941905419 3.285 -0.5543277195067718
v -1.1021821192326178e-16 3.335 -0.6
v -1.1021821192326178e-16 3.285 -0.6
v 0.229610059419054 3.335 -0.554327719506772
v 0.229610059419054 3.285 -0.554327719506772
v 0.4242640687119284 3.335 -0.4242640687119286
v 0.4242640687119284 3.285 -0.4242640687119286
v 0.5543277195067718 3.335 -0.2296100594190542
v 0.5543277195067718 3.285 -0.2296100594190542
v 0.0 3.57 0.0
v 0.0 3.57 0.0
v 0.0 3.57 0.0
v 0.0 3.57 0.0
v 0.0 3.57 0.0
v 0.0 3.57 0.0
v 0.0 3.57 0.0
v 0.0 3.57 0.0
v 0.0 3.57 0.0
v 0.0 3.57 0.0
v 0.0 3.57 0.0
v 0.0 3.57 0.0
v 0.0 3.57 0.0
v 0.0 3.57 0.0
v 0.0 3.57 0.0
v 0.0 3.57 0.0
v 0.05740251485476346 3.5585819298766928 0.0
v 0.053033008588991064 3.5585819298766928 0.021966991411008937
v 0.04058970751096477 3.5585819298766928 0.04058970751096477
v 0.021966991411008937 3.5585819298766928 0.053033008588991064
v 3.5148903039947235e-18 3.5585819298766928 0.05740251485476346
v -0.021966991411008933 3.5585819298766928 0.053033008588991064
v -0.040589707510964766 3.5585819298766928 0.04058970751096477
v -0.053033008588991064 3.5585819298766928 0.02196699141100894
v -0.05740251485476346 3.5585819298766928 7.029780607989447e-18
v -0.053033008588991064 3.5585819298766928 -0.02196699141100893
v -0.04058970751096478 3.5585819298766928 -0.040589707510964766
v -0.021966991411008968 3.5585819298766928 -0.05303300858899105
v -1.054467091198417e-17 3.5585819298766928 -0.05740251485476346
v 0.021966991411008947 3.5585819298766928 -0.05303300858899106
v 0.04058970751096476 3.5585819298766928 -0.04058970751096478
v 0.05303300858899105 3.5585819298766928 -0.02196699141100897
v 0.10606601717798213 3.526066017177982 0.0
v 0.09799222236572824 3.526066017177982 0.04058970751096477
v 0.07500000000000001 3.526066017177982 0.07500000000000001
v 0.04058970751096478 3.526066017177982 0.09799222236572824
v 6.4946704217662e-18 3.526066017177982 0.10606601717798213
v -0.040589707510964766 3.526066017177982 0.09799222236572824
v -0.075 3.526066017177982 0.07500000000000001
v -0.09799222236572824 3.526066017177982 0.04058970751096479
v -0.10606601717798213 3.526066017177982 1.29893408435324e-17
v -0.09799222236572824 3.526066017177982 -0.04058970751096476
v -0.07500000000000001 3.526066017177982 -0.075
v -0.040589707510964836 3.526066017177982 -0.09799222236572822
v -1.9484011265298598e-17 3.526066017177982 -0.10606601717798213
v 0.0405897075109648 3.526066017177982 -0.09799222236572823
v 0.07499999999999998 3.526066017177982 -0.07500000000000001
v 0.09799222236572822 3.526066017177982 -0.04058970751096484
v 0.13858192987669302 3.4774025148547634 0.0
v 0.12803300858899105 3.4774025148547634 0.053033008588991064
v 0.09799222236572824 3.4774025148547634 0.09799222236572824
v 0.05303300858899108 3.4774025148547634 0.12803300858899105
v 8.485695842157753e-18 3.4774025148547634 0.13858192987669302
v -0.05303300858899106 3.4774025148547634 0.12803300858899105
v -0.09799222236572823 3.4774025148547634 0.09799222236572824
v -0.12803300858899105 3.4774025148547634 0.053033008588991085
v -0.13858192987669302 3.4774025148547634 1.6971391684315507e-17
v -0.12803300858899108 3.4774025148547634 -0.05303300858899105
v -0.09799222236572826 3.4774025148547634 -0.09799222236572823
v -0.05303300858899115 3.4774025148547634 -0.12803300858899103
v -2.5457087526473256e-17 3.4774025148547634 -0.13858192987669302
v 0.0530330085889911 3.4774025148547634 -0.12803300858899105
v 0.09799222236572822 3.4774025148547634 -0.09799222236572826
v 0.12803300858899103 3.4774025148547634 -0.053033008588991154
v 0.15 3.42 0.0
v 0.13858192987669302 3.42 0.05740251485476346
v 0.10606601717798213 3.42 0.10606601717798213
v 0.05740251485476347 3.42 0.13858192987669302
v 9.184850993605149e-18 3.42 0.15
v -0.057402514854763456 3.42 0.13858192987669302
v -0.10606601717798211 3.42 0.10606601717798213
v -0.13858192987669302 3.42 0.057402514854763484
v -0.15 3.42 1.8369701987210297e-17
v -0.13858192987669302 3.42 -0.05740251485476345
v -0.10606601717798216 3.42 -0.10606601717798211
v -0.057402514854763546 3.42 -0.13858192987669296
v -2.7554552980815445e-17 3.42 -0.15
v 0.0574025148547635 3.42 -0.138581929876693
v 0.1060660171779821 3.42 -0.10606601717798216
v 0.13858192987669296 3.42 -0.05740251485476355
v 0.13858192987669302 3.3625974851452365 0.0
v 0.12803300858899105 3.3625974851452365 0.053033008588991064
v 0.09799222236572824 3.3625974851452365 0.09799222236572824
v 0.05303300858899108 3.3625974851452365 0.12803300858899105
v 8.485695842157753e-18 3.3625974851452365 0.13858192987669302
v -0.05303300858899106 3.3625974851452365 0.12803300858899105
v -0.09799222236572823 3.3625974851452365 0.09799222236572824
v -0.12803300858899105 3.3625974851452365 0.053033008588991085
v -0.13858192987669302 3.3625974851452365 1.6971391684315507e-17
v -0.12803300858899108 3.3625974851452365 -0.05303300858899105
v -0.09799222236572826 3.3625974851452365 -0.09799222236572823
v -0.05303300858899115 3.3625974851452365 -0.12803300858899103
v -2.5457087526473256e-17 3.3625974851452365 -0.13858192987669302
v 0.0530330085889911 3.3625974851452365 -0.12803300858899105
v 0.09799222236572822 3.3625974851452365 -0.09799222236572826
v 0.12803300858899103 3.3625974851452365 -0.053033008588991154
v 0.10606601717798213 3.313933982822018 0.0
v 0.09799222236572824 3.313933982822018 0.04058970751096477
v 0.07500000000000001 3.313933982822018 0.07500000000000001
v 0.04058970751096478 3.313933982822018 0.09799222236572824
v 6.4946704217662e-18 3.313933982822018 0.10606601717798213
v -0.040589707510964766 3.313933982822018 0.09799222236572824
v -0.075 3.313933982822018 0.07500000000000001
v -0.09799222236572824 3.313933982822018 0.04058970751096479
v -0.10606601717798213 3.313933982822018 1.29893408435324e-17
v -0.09799222236572824 3.313933982822018 -0.04058970751096476
v -0.07500000000000001 3.313933982822018 -0.075
v -0.040589707510964836 3.313933982822018 -0.09799222236572822
v -1.9484011265298598e-17 3.313933982822018 -0.10606601717798213
v 0.0405897075109648 3.313933982822018 -0.09799222236572823
v 0.07499999999999998 3.313933982822018 -0.07500000000000001
v 0.09799222236572822 3.313933982822018 -0.04058970751096484
v 0.057402514854763484 3.281418070123307 0.0
v 0.05303300858899108 3.281418070123307 0.021966991411008944
v 0.04058970751096479 3.281418070123307 0.04058970751096479
v 0.021966991411008947 3.281418070123307 0.05303300858899108
v 3.514890303994725e-18 3.281418070123307 0.057402514854763484
v -0.02196699141100894 3.281418070123307 0.05303300858899108
v -0.04058970751096478 3.281418070123307 0.04058970751096479
v -0.05303300858899108 3.281418070123307 0.02196699141100895
v -0.057402514854763484 3.281418070123307 7.02978060798945e-18
v -0.053033008588991085 3.281418070123307 -0.021966991411008937
v -0.040589707510964794 3.281418070123307 -0.04058970751096478
v -0.021966991411008975 3.281418070123307 -0.05303300858899107
v -1.0544670911984174e-17 3.281418070123307 -0.057402514854763484
v 0.021966991411008954 3.281418070123307 -0.05303300858899107
v 0.04058970751096478 3.281418070123307 -0.040589707510964794
v 0.05303300858899107 3.281418070123307 -0.02196699141100898
v 1.8369701987210297e-17 3.27 0.0
v 1.6971391684315504e-17 3.27 7.029780607989447e-18
v 1.29893408435324e-17 3.27 1.29893408435324e-17
v 7.029780607989448e-18 3.27 1.6971391684315504e-17
v 1.1248198369963932e-33 3.27 1.8369701987210297e-17
v -7.029780607989447e-18 3.27 1.6971391684315504e-17
v -1.2989340843532398e-17 3.27 1.29893408435324e-17
v -1.6971391684315504e-17 3.27 7.02978060798945e-18
v -1.8369701987210297e-17 3.27 2.2496396739927864e-33
v -1.6971391684315507e-17 3.27 -7.029780607989445e-18
v -1.2989340843532401e-17 3.27 -1.2989340843532398e-17
v -7.029780607989458e-18 3.27 -1.69713916843155e-17
v -3.3744595109891796e-33 3.27 -1.8369701987210297e-17
v 7.029780607989452e-18 3.27 -1.6971391684315504e-17
v 1.2989340843532395e-17 3.27 -1.2989340843532401e-17
v 1.69713916843155e-17 3.27 -7.029780607989458e-18
f 1 2 3
f 1 3 4
f 1 4 5
f 1 5 6
f 1 6 7
f 1 7 8
f 1 8 9
f 1 9 10
f 1 10 11
f 1 11 12
f 1 12 13
f 1 13 14
f 1 14 15
f 1 15 16
f 1 16 17
f 1 17 2
f 18 20 22
f 19 23 21
f 20 21 22
f 22 21 23
f 18 22 24
f 19 25 23
f 22 23 24
f 24 23 25
f 18 24 26
f 19 27 25
f 24 25 26
f 26 25 27
f 18 26 28
f 19 29 27
f 26 27 28
f 28 27 29
f 18 28 30
f 19 31 29
f 28 29 30
f 30 29 31
f 18 30 32
f 19 33 31
f 30 31 32
f 32 31 33
f 18 32 34
f 19 35 33
f 32 33 34
f 34 33 35
f 18 34 36
f 19 37 35
f 34 35 36
f 36 35 37
f 18 36 38
f 19 39 37
f 36 37 38
f 38 37 39
f 18 38 40
f 19 41 39
f 38 39 40
f 40 39 41
f 18 40 42
f 19 43 41
f 40 41 42
f 42 41 43
f 18 42 44
f 19 45 43
f 42 43 44
f 44 43 45
f 18 44 46
f 19 47 45
f 44 45 46
f 46 45 47
f 18 46 48
f 19 49 47
f 46 47 48
f 48 47 49
f 18 48 50
f 19 51 49
f 48 49 50
f 50 49 51
f 18 50 20
f 19 21 51
f 50 51 20
f 20 51 21
f 52 53 54
f 54 53 55
f 54 55 56
f 56 55 57
f 56 57 58
f 58 57 59
f 58 59 60
f 60 59 61
f 60 61 62
f 62 61 63
f 62 63 64
f 64 63 65
f 64 65 66
f 66 65 67
f 66 67 68
f 68 67 69
f 68 69 70
f 70 69 71
f 70 71 72
f 72 71 73
f 72 73 74
f 74 73 75
f 74 75 76
f 76 75 77
f 76 77 78
f 78 77 79
f 78 79 80
f 80 79 81
f 80 81 82
f 82 81 83
f 82 83 52
f 52 83 53
f 84 86 88
f 85 89 87
f 86 87 88
f 88 87 89
f 84 88 90
f 85 91 89
f 88 89 90
f 90 89 91
f 84 90 92
f 85 93 91
f 90 91 92
f 92 91 93
f 84 92 94
f 85 95 93
f 92 93 94
f 94 93 95
f 84 94 96
f 85 97 95
f 94 95 96
f 96 95 97
f 84 96 98
f 85 99 97
f 96 97 98
f 98 97 99
f 84 98 100
f 85 101 99
f 98 99 100
f 100 99 101
f 84 100 102
f 85 103 101
f 100 101 102
f 102 101 103
f 84 102 104
f 85 105 103
f 102 103 104
f 104 103 105
f 84 104 106
f 85 107 105
f 104 105 106
f 106 105 107
f 84 106 108
f 85 109 107
f 106 107 108
f 108 107 109
f 84 108 110
f 85 111 109
f 108 109 110
f 110 109 111
f 84 110 112
f 85 113 111
f 110 111 112
f 112 111 113
f 84 112 114
f 85 115 113
f 112 113 114
f 114 113 115
f 84 114 116
f 85 117 115
f 114 115 116
f 116 115 117
f 84 116 86
f 85 87 117
f 116 117 86
f 86 117 87
f 118 119 120
f 120 119 121
f 120 121 122
f 122 121 123
f 122 123 124
f 124 123 125
f 124 125 126
f 126 125 127
f 126 127 128
f 128 127 129
f 128 129 130
f 130 129 131
f 130 131 132
f 132 131 133
f 132 133 134
f 134 133 135
f 134 135 136
f 136 135 137
f 136 137 138
f 138 137 139
f 138 139 140
f 140 139 141
f 140 141 142
f 142 141 143
f 142 143 144
f 144 143 145
f 144 145 146
f 146 145 147
f 146 147 148
f 148 147 149
f 148 149 118
f 118 149 119
f 150 152 154
f 151 155 153
f 152 153 154
f 154 153 155
f 150 154 156
f 151 157 155
f 154 155 156
f 156 155 157
f 150 156 158
f 151 159 157
f 156 157 158
f 158 157 159
f 150 158 160
f 151 161 159
f 158 159 160
f 160 159 161
f 150 160 162
f 151 163 161
f 160 161 162
f 162 161 163
f 150 162 164
f 151 165 163
f 162 163 164
f 164 163 165
f 150 164 166
f 151 167 165
f 164 165 166
f 166 165 167
f 150 166 168
f 151 169 167
f 166 167 168
f 168 167 169
f 150 168 170
f 151 171 169
f 168 169 170
f 170 169 171
f 150 170 172
f 151 173 171
f 170 171 172
f 172 171 173
f 150 172 174
f 151 175 173
f 172 173 174
f 174 173 175
f 150 174 176
f 151 177 175
f 174 175 176
f 176 175 177
f 150 176 178
f 151 179 177
f 176 177 178
f 178 177 179
f 150 178 180
f 151 181 179
f 178 179 180
f 180 179 181
f 150 180 182
f 151 183 181
f 180 181 182
f 182 181 183
f 150 182 152
f 151 153 183
f 182 183 152
f 152 183 153
f 184 185 186
f 186 185 187
f 186 187 188
f 188 187 189
f 188 189 190
f 190 189 191
f 190 191 192
f 192 191 193
f 192 193 194
f 194 193 195
f 194 195 196
f 196 195 197
f 196 197 198
f 198 197 199
f 198 199 200
f 200 199 201
f 200 201 202
f 202 201 203
f 202 203 204
f 204 203 205
f 204 205 206
f 206 205 207
f 206 207 208
f 208 207 209
f 208 209 210
f 210 209 211
f 210 211 212
f 212 211 213
f 212 213 214
f 214 213 215
f 214 215 184
f 184 215 185
f 216 218 220
f 217 221 219
f 218 219 220
f 220 219 221
f 216 220 222
f 217 223 221
f 220 221 222
f 222 221 223
f 216 222 224
f 217 225 223
f 222 223 224
f 224 223 225
f 216 224 226
f 217 227 225
f 224 225 226
f 226 225 227
f 216 226 228
f 217 229 227
f 226 227 228
f 228 227 229
f 216 228 230
f 217 231 229
f 228 229 230
f 230 229 231
f 216 230 232
f 217 233 231
f 230 231 232
f 232 231 233
f 216 232 234
f 217 235 233
f 232 233 234
f 234 233 235
f 216 234 236
f 217 237 235
f 234 235 236
f 236 235 237
f 216 236 238
f 217 239 237
f 236 237 238
f 238 237 239
f 216 238 240
f 217 241 239
f 238 239 240
f 240 239 241
f 216 240 242
f 217 243 241
f 240 241 242
f 242 241 243
f 216 242 244
f 217 245 243
f 242 243 244
f 244 243 245
f 216 244 246
f 217 247 245
f 244 245 246
f 246 245 247
f 216 246 248
f 217 249 247
f 246 247 248
f 248 247 249
f 216 248 218
f 217 219 249
f 248 249 218
f 218 249 219
f 250 266 251
f 251 266 267
f 251 267 252
f 252 267 268
f 252 268 253
f 253 268 269
f 253 269 254
f 254 269 270
f 254 270 255
f 255 270 271
f 255 271 256
f 256 271 272
f 256 272 257
f 257 272 273
f 257 273 258
f 258 273 274
f 258 274 259
f 259 274 275
f 259 275 260
f 260 275 276
f 260 276 261
f 261 276 277
f 261 277 262
f 262 277 278
f 262 278 263
f 263 278 279
f 263 279 264
f 264 279 280
f 264 280 265
f 265 280 281
f 265 281 250
f 250 281 266
f 266 282 267
f 267 282 283
f 267 283 268
f 268 283 284
f 268 284 269
f 269 284 285
f 269 285 270
f 270 285 286
f 270 286 271
f 271 286 287
f 271 287 272
f 272 287 288
f 272 288 273
f 273 288 289
f 273 289 274
f 274 289 290
f 274 290 275
f 275 290 291
f 275 291 276
f 276 291 292
f 276 292 277
f 277 292 293
f 277 293 278
f 278 293 294
f 278 294 279
f 279 294 295
f 279 295 280
f 280 295 296
f 280 296 281
f 281 296 297
f 281 297 266
f 266 297 282
f 282 298 283
f 283 298 299
f 283 299 284
f 284 299 300
f 284 300 285
f 285 300 301
f 285 301 286
f 286 301 302
f 286 302 287
f 287 302 303
f 287 303 288
f 288 303 304
f 288 304 289
f 289 304 305
f 289 305 290
f 290 305 306
f 290 306 291
f 291 306 307
f 291 307 292
f 292 307 308
f 292 308 293
f 293 308 309
f 293 309 294
f 294 309 310
f 294 310 295
f 295 310 311
f 295 311 296
f 296 311 312
f 296 312 297
f 297 312 313
f 297 313 282
f 282 313 298
f 298 314 299
f 299 314 315
f 299 315 300
f 300 315 316
f 300 316 301
f 301 316 317
f 301 317 302
f 302 317 318
f 302 318 303
f 303 318 319
f 303 319 304
f 304 319 320
f 304 320 305
f 305 320 321
f 305 321 306
f 306 321 322
f 306 322 307
f 307 322 323
f 307 323 308
f 308 323 324
f 308 324 309
f 309 324 325
f 309 325 310
f 310 325 326
f 310 326 311
f 311 326 327
f 311 327 312
f 312 327 328
f 312 328 313
f 313 328 329
f 313 329 298
f 298 329 314
f 314 330 315
f 315 330 331
f 315 331 316
f 316 331 332
f 316 332 317
f 317 332 333
f 317 333 318
f 318 333 334
f 318 334 319
f 319 334 335
f 319 335 320
f 320 335 336
f 320 336 321
f 321 336 337
f 321 337 322
f 322 337 338
f 322 338 323
f 323 338 339
f 323 339 324
f 324 339 340
f 324 340 325
f 325 340 341
f 325 341 326
f 326 341 342
f 326 342 327
f 327 342 343
f 327 343 328
f 328 343 344
f 328 344 329
f 329 344 345
f 329 345 314
f 314 345 330
f 330 346 331
f 331 346 347
f 331 347 332
f 332 347 348
f 332 348 333
f 333 348 349
f 333 349 334
f 334 349 350
f 334 350 335
f 335 350 351
f 335 351 336
f 336 351 352
f 336 352 337
f 337 352 353
f 337 353 338
f 338 353 354
f 338 354 339
f 339 354 355
f 339 355 340
f 340 355 356
f 340 356 341
f 341 356 357
f 341 357 342
f 342 357 358
f 342 358 343
f 343 358 359
f 343 359 344
f 344 359 360
f 344 360 345
f 345 360 361
f 345 361 330
f 330 361 346
f 346 362 347
f 347 362 363
f 347 363 348
f 348 363 364
f 348 364 349
f 349 364 365
f 349 365 350
f 350 365 366
f 350 366 351
f 351 366 367
f 351 367 352
f 352 367 368
f 352 368 353
f 353 368 369
f 353 369 354
f 354 369 370
f 354 370 355
f 355 370 371
f 355 371 356
f 356 371 372
f 356 372 357
f 357 372 373
f 357 373 358
f 358 373 374
f 358 374 359
f 359 374 375
f 359 375 360
f 360 375 376
f 360 376 361
f 361 376 377
f 361 377 346
f 346 377 362
f 362 378 363
f 363 378 379
f 363 379 364
f 364 379 380
f 364 380 365
f 365 380 381
f 365 381 366
f 366 381 382
f 366 382 367
f 367 382 383
f 367 383 368
f 368 383 384
f 368 384 369
f 369 384 385
f 369 385 370
f 370 385 386
f 370 386 371
f 371 386 387
f 371 387 372
f 372 387 388
f 372 388 373
f 373 388 389
f 373 389 374
f 374 389 390
f 374 390 375
f 375 390 391
f 375 391 376
f 376 391 392
f 376 392 377
f 377 392 393
f 377 393 362
f 362 393 378
