v 0 0 0
v 0.9 0 0.0
v 0.831491579260158 0 0.3444150891285808
v 0.6363961030678928 0 0.6363961030678928
v 0.3444150891285809 0 0.831491579260158
v 5.5109105961630896e-17 0 0.9
v -0.34441508912858076 0 0.831491579260158
v -0.6363961030678927 0 0.6363961030678928
v -0.831491579260158 0 0.34441508912858093
v -0.9 0 1.1021821192326179e-16
v -0.8314915792601582 0 -0.3444150891285807
v -0.636396103067893 0 -0.6363961030678927
v -0.3444150891285813 0 -0.8314915792601579
v -1.6532731788489269e-16 0 -0.9
v 0.344415089128581 0 -0.8314915792601579
v 0.6363961030678926 0 -0.636396103067893
v 0.8314915792601579 0 -0.3444150891285814
v 0.0 0.2 0.0
v 0.0 0.0 0.0
v 0.9 0.2 0.0
v 0.9 0.0 0.0
v 0.831491579260158 0.2 0.3444150891285808
v 0.831491579260158 0.0 0.3444150891285808
v 0.6363961030678928 0.2 0.6363961030678928
v 0.6363961030678928 0.0 0.6363961030678928
v 0.3444150891285809 0.2 0.831491579260158
v 0.3444150891285809 0.0 0.831491579260158
v 5.5109105961630896e-17 0.2 0.9
v 5.5109105961630896e-17 0.0 0.9
v -0.34441508912858076 0.2 0.831491579260158
v -0.34441508912858076 0.0 0.831491579260158
v -0.6363961030678927 0.2 0.6363961030678928
v -0.6363961030678927 0.0 0.6363961030678928
v -0.831491579260158 0.2 0.34441508912858093
v -0.831491579260158 0.0 0.34441508912858093
v -0.9 0.2 1.1021821192326179e-16
v -0.9 0.0 1.1021821192326179e-16
v -0.8314915792601582 0.2 -0.3444150891285807
v -0.8314915792601582 0.0 -0.3444150891285807
v -0.636396103067893 0.2 -0.6363961030678927
v -0.636396103067893 0.0 -0.6363961030678927
v -0.3444150891285813 0.2 -0.8314915792601579
v -0.3444150891285813 0.0 -0.8314915792601579
v -1.6532731788489269e-16 0.2 -0.9
v -1.6532731788489269e-16 0.0 -0.9
v 0.344415089128581 0.2 -0.8314915792601579
v 0.344415089128581 0.0 -0.8314915792601579
v 0.6363961030678926 0.2 -0.636396103067893
v 0.6363961030678926 0.0 -0.636396103067893
v 0.8314915792601579 0.2 -0.3444150891285814
v 0.8314915792601579 0.0 -0.3444150891285814
v 0.7 0.44999999999999996 0.0
v 0.9 0.15 0.0
v 0.6467156727579007 0.44999999999999996 0.26787840265556284
v 0.831491579260158 0.15 0.3444150891285808
v 0.4949747468305833 0.44999999999999996 0.4949747468305833
v 0.6363961030678928 0.15 0.6363961030678928
v 0.26787840265556284 0.44999999999999996 0.6467156727579007
v 0.3444150891285809 0.15 0.831491579260158
v 4.286263797015736e-17 0.44999999999999996 0.7
v 5.5109105961630896e-17 0.15 0.9
v -0.2678784026555628 0.44999999999999996 0.6467156727579007
v -0.34441508912858076 0.15 0.831491579260158
v -0.4949747468305832 0.44999999999999996 0.4949747468305833
v -0.6363961030678927 0.15 0.6363961030678928
v -0.6467156727579007 0.44999999999999996 0.2678784026555629
v -0.831491579260158 0.15 0.34441508912858093
v -0.7 0.44999999999999996 8.572527594031472e-17
v -0.9 0.15 1.1021821192326179e-16
v -0.6467156727579008 0.44999999999999996 -0.26787840265556273
v -0.8314915792601582 0.15 -0.3444150891285807
v -0.49497474683058335 0.44999999999999996 -0.4949747468305832
v -0.636396103067893 0.15 -0.6363961030678927
v -0.26787840265556323 0.44999999999999996 -0.6467156727579005
v -0.3444150891285813 0.15 -0.8314915792601579
v -1.2858791391047207e-16 0.44999999999999996 -0.7
v -1.6532731788489269e-16 0.15 -0.9
v 0.267878402655563 0.44999999999999996 -0.6467156727579007
v 0.344415089128581 0.15 -0.8314915792601579
v 0.4949747468305831 0.44999999999999996 -0.49497474683058335
v 0.6363961030678926 0.15 -0.636396103067893
v 0.6467156727579005 0.44999999999999996 -0.26787840265556323
v 0.8314915792601579 0.15 -0.3444150891285814
v 0.0 0.6 0.0
v 0.0 0.4 0.0
v 0.7 0.6 0.0
v 0.7 0.4 0.0
v 0.6467156727579007 0.6 0.26787840265556284
v 0.6467156727579007 0.4 0.26787840265556284
v 0.4949747468305833 0.6 0.4949747468305833
v 0.4949747468305833 0.4 0.4949747468305833
v 0.26787840265556284 0.6 0.6467156727579007
v 0.26787840265556284 0.4 0.6467156727579007
v 4.286263797015736e-17 0.6 0.7
v 4.286263797015736e-17 0.4 0.7
v -0.2678784026555628 0.6 0.6467156727579007
v -0.2678784026555628 0.4 0.6467156727579007
v -0.4949747468305832 0.6 0.4949747468305833
v -0.4949747468305832 0.4 0.4949747468305833
v -0.6467156727579007 0.6 0.2678784026555629
v -0.6467156727579007 0.4 0.2678784026555629
v -0.7 0.6 8.572527594031472e-17
v -0.7 0.4 8.572527594031472e-17
v -0.6467156727579008 0.6 -0.26787840265556273
v -0.6467156727579008 0.4 -0.26787840265556273
v -0.49497474683058335 0.6 -0.4949747468305832
v -0.49497474683058335 0.4 -0.4949747468305832
v -0.26787840265556323 0.6 -0.6467156727579005
v -0.26787840265556323 0.4 -0.6467156727579005
v -1.2858791391047207e-16 0.6 -0.7
v -1.2858791391047207e-16 0.4 -0.7
v 0.267878402655563 0.6 -0.6467156727579007
v 0.267878402655563 0.4 -0.6467156727579007
v 0.4949747468305831 0.6 -0.49497474683058335
v 0.4949747468305831 0.4 -0.49497474683058335
v 0.6467156727579005 0.6 -0.26787840265556323
v 0.6467156727579005 0.4 -0.26787840265556323
v 0.3 1.9 0.0
v 0.6 0.5 0.0
v 0.27716385975338603 1.9 0.11480502970952693
v 0.5543277195067721 0.5 0.22961005941905385
v 0.21213203435596426 1.9 0.21213203435596426
v 0.4242640687119285 0.5 0.4242640687119285
v 0.11480502970952694 1.9 0.27716385975338603
v 0.22961005941905388 0.5 0.5543277195067721
v 1.8369701987210297e-17 1.9 0.3
v 3.6739403974420595e-17 0.5 0.6
v -0.11480502970952691 1.9 0.27716385975338603
v -0.22961005941905382 0.5 0.5543277195067721
v -0.21213203435596423 1.9 0.21213203435596426
v -0.42426406871192845 0.5 0.4242640687119285
v -0.27716385975338603 1.9 0.11480502970952697
v -0.5543277195067721 0.5 0.22961005941905394
v -0.3 1.9 3.6739403974420595e-17
v -0.6 0.5 7.347880794884119e-17
v -0.27716385975338603 1.9 -0.1148050297095269
v -0.5543277195067721 0.5 -0.2296100594190538
v -0.2121320343559643 1.9 -0.21213203435596423
v -0.4242640687119286 0.5 -0.42426406871192845
v -0.11480502970952709 1.9 -0.2771638597533859
v -0.22961005941905419 0.5 -0.5543277195067718
v -5.510910596163089e-17 1.9 -0.3
v -1.1021821192326178e-16 0.5 -0.6
v 0.114805029709527 1.9 -0.277163859753386
v 0.229610059419054 0.5 -0.554327719506772
v 0.2121320343559642 1.9 -0.2121320343559643
v 0.4242640687119284 0.5 -0.4242640687119286
v 0.2771638597533859 1.9 -0.1148050297095271
v 0.5543277195067718 0.5 -0.2296100594190542
v 0.0 1.95 0.0
v 0.0 1.8499999999999999 0.0
v 0.4 1.95 0.0
v 0.4 1.8499999999999999 0.0
v 0.36955181300451473 1.95 0.15307337294603593
v 0.36955181300451473 1.8499999999999999 0.15307337294603593
v 0.28284271247461906 1.95 0.28284271247461906
v 0.28284271247461906 1.8499999999999999 0.28284271247461906
v 0.15307337294603596 1.95 0.36955181300451473
v 0.15307337294603596 1.8499999999999999 0.36955181300451473
v 2.4492935982947065e-17 1.95 0.4
v 2.4492935982947065e-17 1.8499999999999999 0.4
v -0.1530733729460359 1.95 0.36955181300451473
v -0.1530733729460359 1.8499999999999999 0.36955181300451473
v -0.282842712474619 1.95 0.28284271247461906
v -0.282842712474619 1.8499999999999999 0.28284271247461906
v -0.36955181300451473 1.95 0.15307337294603596
v -0.36955181300451473 1.8499999999999999 0.15307337294603596
v -0.4 1.95 4.898587196589413e-17
v -0.4 1.8499999999999999 4.898587196589413e-17
v -0.3695518130045148 1.95 -0.15307337294603587
v -0.3695518130045148 1.8499999999999999 -0.15307337294603587
v -0.28284271247461906 1.95 -0.282842712474619
v -0.28284271247461906 1.8499999999999999 -0.282842712474619
v -0.15307337294603615 1.95 -0.3695518130045146
v -0.15307337294603615 1.8499999999999999 -0.3695518130045146
v -7.347880794884119e-17 1.95 -0.4
v -7.347880794884119e-17 1.8499999999999999 -0.4
v 0.153073372946036 1.95 -0.3695518130045147
v 0.153073372946036 1.8499999999999999 -0.3695518130045147
v 0.28284271247461895 1.95 -0.28284271247461906
v 0.28284271247461895 1.8499999999999999 -0.28284271247461906
v 0.3695518130045146 1.95 -0.15307337294603618
v 0.3695518130045146 1.8499999999999999 -0.15307337294603618
v 0.0 2.6 0.0
v 0.0 2.6 0.0
v 0.0 2.6 0.0
v 0.0 2.6 0.0
v 0.0 2.6 0.0
v 0.0 2.6 0.0
v 0.0 2.6 0.0
v 0.0 2.6 0.0
v 0.0 2.6 0.0
v 0.0 2.6 0.0
v 0.0 2.6 0.0
v 0.0 2.6 0.0
v 0.0 2.6 0.0
v 0.0 2.6 0.0
v 0.0 2.6 0.0
v 0.0 2.6 0.0
v 0.1035276180410083 2.5863703305156274 0.0
v 0.0956470473577338 2.5863703305156274 0.03961830421651505
v 0.07320508075688772 2.5863703305156274 0.07320508075688772
v 0.039618304216515056 2.5863703305156274 0.0956470473577338
v 6.3392383028635294e-18 2.5863703305156274 0.1035276180410083
v -0.03961830421651504 2.5863703305156274 0.0956470473577338
v -0.07320508075688771 2.5863703305156274 0.07320508075688772
v -0.0956470473577338 2.5863703305156274 0.039618304216515056
v -0.1035276180410083 2.5863703305156274 1.2678476605727059e-17
v -0.09564704735773381 2.5863703305156274 -0.039618304216515035
v -0.07320508075688774 2.5863703305156274 -0.07320508075688771
v -0.039618304216515104 2.5863703305156274 -0.09564704735773377
v -1.9017714908590586e-17 2.5863703305156274 -0.1035276180410083
v 0.03961830421651507 2.5863703305156274 -0.09564704735773379
v 0.07320508075688771 2.5863703305156274 -0.07320508075688774
v 0.09564704735773377 2.5863703305156274 -0.03961830421651511
v 0.19999999999999998 2.5464101615137755 0.0
v 0.18477590650225734 2.5464101615137755 0.07653668647301795
v 0.1414213562373095 2.5464101615137755 0.1414213562373095
v 0.07653668647301796 2.5464101615137755 0.18477590650225734
v 1.2246467991473531e-17 2.5464101615137755 0.19999999999999998
v -0.07653668647301794 2.5464101615137755 0.18477590650225734
v -0.14142135623730948 2.5464101615137755 0.1414213562373095
v -0.18477590650225734 2.5464101615137755 0.07653668647301798
v -0.19999999999999998 2.5464101615137755 2.4492935982947062e-17
v -0.18477590650225736 2.5464101615137755 -0.07653668647301792
v -0.14142135623730953 2.5464101615137755 -0.14142135623730948
v -0.07653668647301806 2.5464101615137755 -0.18477590650225728
v -3.673940397442059e-17 2.5464101615137755 -0.19999999999999998
v 0.07653668647301799 2.5464101615137755 -0.1847759065022573
v 0.14142135623730945 2.5464101615137755 -0.14142135623730953
v 0.18477590650225728 2.5464101615137755 -0.07653668647301808
v 0.28284271247461906 2.482842712474619 0.0
v 0.26131259297527537 2.482842712474619 0.10823922002923941
v 0.20000000000000004 2.482842712474619 0.20000000000000004
v 0.10823922002923944 2.482842712474619 0.26131259297527537
v 1.731912112470987e-17 2.482842712474619 0.28284271247461906
v -0.1082392200292394 2.482842712474619 0.26131259297527537
v -0.2 2.482842712474619 0.20000000000000004
v -0.26131259297527537 2.482842712474619 0.10823922002923946
v -0.28284271247461906 2.482842712474619 3.463824224941974e-17
v -0.26131259297527537 2.482842712474619 -0.10823922002923939
v -0.2000000000000001 2.482842712474619 -0.2
v -0.10823922002923958 2.482842712474619 -0.26131259297527526
v -5.1957363374129606e-17 2.482842712474619 -0.28284271247461906
v 0.10823922002923948 2.482842712474619 -0.2613125929752753
v 0.19999999999999998 2.482842712474619 -0.2000000000000001
v 0.26131259297527526 2.482842712474619 -0.1082392200292396
v 0.34641016151377546 2.4000000000000004 0.0
v 0.3200412580765062 2.4000000000000004 0.13256542961423673
v 0.24494897427831783 2.4000000000000004 0.24494897427831783
v 0.13256542961423673 2.4000000000000004 0.3200412580765062
v 2.121150477449814e-17 2.4000000000000004 0.34641016151377546
v -0.1325654296142367 2.4000000000000004 0.3200412580765062
v -0.2449489742783178 2.4000000000000004 0.24494897427831783
v -0.3200412580765062 2.4000000000000004 0.13256542961423676
v -0.34641016151377546 2.4000000000000004 4.242300954899628e-17
v -0.32004125807650624 2.4000000000000004 -0.13256542961423667
v -0.24494897427831785 2.4000000000000004 -0.2449489742783178
v -0.13256542961423692 2.4000000000000004 -0.32004125807650613
v -6.363451432349441e-17 2.4000000000000004 -0.34641016151377546
v 0.13256542961423678 2.4000000000000004 -0.3200412580765062
v 0.24494897427831774 2.4000000000000004 -0.24494897427831785
v 0.32004125807650613 2.4000000000000004 -0.13256542961423692
v 0.38637033051562736 2.3035276180410085 0.0
v 0.35695964033300914 2.3035276180410085 0.14785752424575446
v 0.27320508075688776 2.3035276180410085 0.27320508075688776
v 0.1478575242457545 2.3035276180410085 0.35695964033300914
v 2.36583594275734e-17 2.3035276180410085 0.38637033051562736
v -0.14785752424575443 2.3035276180410085 0.35695964033300914
v -0.2732050807568877 2.3035276180410085 0.27320508075688776
v -0.35695964033300914 2.3035276180410085 0.14785752424575452
v -0.38637033051562736 2.3035276180410085 4.73167188551468e-17
v -0.3569596403330092 2.3035276180410085 -0.14785752424575443
v -0.2732050807568878 2.3035276180410085 -0.2732050807568877
v -0.14785752424575468 2.3035276180410085 -0.3569596403330091
v -7.097507828272019e-17 2.3035276180410085 -0.38637033051562736
v 0.14785752424575455 2.3035276180410085 -0.3569596403330091
v 0.2732050807568877 2.3035276180410085 -0.2732050807568878
v 0.3569596403330091 2.3035276180410085 -0.1478575242457547
v 0.4 2.2 0.0
v 0.36955181300451473 2.2 0.15307337294603593
v 0.28284271247461906 2.2 0.28284271247461906
v 0.15307337294603596 2.2 0.36955181300451473
v 2.4492935982947065e-17 2.2 0.4
v -0.1530733729460359 2.2 0.36955181300451473
v -0.282842712474619 2.2 0.28284271247461906
v -0.36955181300451473 2.2 0.15307337294603596
v -0.4 2.2 4.898587196589413e-17
v -0.3695518130045148 2.2 -0.15307337294603587
v -0.28284271247461906 2.2 -0.282842712474619
v -0.15307337294603615 2.2 -0.3695518130045146
v -7.347880794884119e-17 2.2 -0.4
v 0.153073372946036 2.2 -0.3695518130045147
v 0.28284271247461895 2.2 -0.28284271247461906
v 0.3695518130045146 2.2 -0.15307337294603618
v 0.38637033051562736 2.096472381958992 0.0
v 0.35695964033300914 2.096472381958992 0.14785752424575446
v 0.27320508075688776 2.096472381958992 0.27320508075688776
v 0.1478575242457545 2.096472381958992 0.35695964033300914
v 2.36583594275734e-17 2.096472381958992 0.38637033051562736
v -0.14785752424575443 2.096472381958992 0.35695964033300914
v -0.2732050807568877 2.096472381958992 0.27320508075688776
v -0.35695964033300914 2.096472381958992 0.14785752424575452
v -0.38637033051562736 2.096472381958992 4.73167188551468e-17
v -0.3569596403330092 2.096472381958992 -0.14785752424575443
v -0.2732050807568878 2.096472381958992 -0.2732050807568877
v -0.14785752424575468 2.096472381958992 -0.3569596403330091
v -7.097507828272019e-17 2.096472381958992 -0.38637033051562736
v 0.14785752424575455 2.096472381958992 -0.3569596403330091
v 0.2732050807568877 2.096472381958992 -0.2732050807568878
v 0.3569596403330091 2.096472381958992 -0.1478575242457547
v 0.3464101615137755 2.0000000000000004 0.0
v 0.32004125807650624 2.0000000000000004 0.13256542961423673
v 0.24494897427831785 2.0000000000000004 0.24494897427831785
v 0.13256542961423676 2.0000000000000004 0.32004125807650624
v 2.1211504774498142e-17 2.0000000000000004 0.3464101615137755
v -0.13256542961423673 2.0000000000000004 0.32004125807650624
v -0.24494897427831783 2.0000000000000004 0.24494897427831785
v -0.32004125807650624 2.0000000000000004 0.13256542961423678
v -0.3464101615137755 2.0000000000000004 4.2423009548996284e-17
v -0.3200412580765063 2.0000000000000004 -0.1325654296142367
v -0.2449489742783179 2.0000000000000004 -0.24494897427831783
v -0.13256542961423692 2.0000000000000004 -0.3200412580765062
v -6.363451432349442e-17 2.0000000000000004 -0.3464101615137755
v 0.1325654296142368 2.0000000000000004 -0.32004125807650624
v 0.2449489742783178 2.0000000000000004 -0.2449489742783179
v 0.3200412580765062 2.0000000000000004 -0.13256542961423695
v 0.28284271247461906 1.9171572875253813 0.0
v 0.26131259297527537 1.9171572875253813 0.10823922002923941
v 0.20000000000000004 1.9171572875253813 0.20000000000000004
v 0.10823922002923944 1.9171572875253813 0.26131259297527537
v 1.731912112470987e-17 1.9171572875253813 0.28284271247461906
v -0.1082392200292394 1.9171572875253813 0.26131259297527537
v -0.2 1.9171572875253813 0.20000000000000004
v -0.26131259297527537 1.9171572875253813 0.10823922002923946
v -0.28284271247461906 1.9171572875253813 3.463824224941974e-17
v -0.26131259297527537 1.9171572875253813 -0.10823922002923939
v -0.2000000000000001 1.9171572875253813 -0.2
v -0.10823922002923958 1.9171572875253813 -0.26131259297527526
v -5.1957363374129606e-17 1.9171572875253813 -0.28284271247461906
v 0.10823922002923948 1.9171572875253813 -0.2613125929752753
v 0.19999999999999998 1.9171572875253813 -0.2000000000000001
v 0.26131259297527526 1.9171572875253813 -0.1082392200292396
v 0.19999999999999998 1.8535898384862246 0.0
v 0.18477590650225734 1.8535898384862246 0.07653668647301795
v 0.1414213562373095 1.8535898384862246 0.1414213562373095
v 0.07653668647301796 1.8535898384862246 0.18477590650225734
v 1.2246467991473531e-17 1.8535898384862246 0.19999999999999998
v -0.07653668647301794 1.8535898384862246 0.18477590650225734
v -0.14142135623730948 1.8535898384862246 0.1414213562373095
v -0.18477590650225734 1.8535898384862246 0.07653668647301798
v -0.19999999999999998 1.8535898384862246 2.4492935982947062e-17
v -0.18477590650225736 1.8535898384862246 -0.07653668647301792
v -0.14142135623730953 1.8535898384862246 -0.14142135623730948
v -0.07653668647301806 1.8535898384862246 -0.18477590650225728
v -3.673940397442059e-17 1.8535898384862246 -0.19999999999999998
v 0.07653668647301799 1.8535898384862246 -0.1847759065022573
v 0.14142135623730945 1.8535898384862246 -0.14142135623730953
v 0.18477590650225728 1.8535898384862246 -0.07653668647301808
v 0.1035276180410084 1.813629669484373 0.0
v 0.0956470473577339 1.813629669484373 0.03961830421651509
v 0.07320508075688781 1.813629669484373 0.07320508075688781
v 0.0396183042165151 1.813629669484373 0.0956470473577339
v 6.339238302863536e-18 1.813629669484373 0.1035276180410084
v -0.039618304216515084 1.813629669484373 0.0956470473577339
v -0.0732050807568878 1.813629669484373 0.07320508075688781
v -0.0956470473577339 1.813629669484373 0.0396183042165151
v -0.1035276180410084 1.813629669484373 1.2678476605727073e-17
v -0.09564704735773391 1.813629669484373 -0.03961830421651508
v -0.07320508075688782 1.813629669484373 -0.0732050807568878
v -0.039618304216515146 1.813629669484373 -0.09564704735773388
v -1.9017714908590608e-17 1.813629669484373 -0.1035276180410084
v 0.03961830421651511 1.813629669484373 -0.0956470473577339
v 0.07320508075688778 1.813629669484373 -0.07320508075688782
v 0.09564704735773388 1.813629669484373 -0.03961830421651515
v 4.898587196589413e-17 1.8000000000000003 0.0
v 4.5257044491508017e-17 1.8000000000000003 1.8746081621305195e-17
v 3.4638242249419735e-17 1.8000000000000003 3.4638242249419735e-17
v 1.8746081621305198e-17 1.8000000000000003 4.5257044491508017e-17
v 2.9995195653237156e-33 1.8000000000000003 4.898587196589413e-17
v -1.8746081621305192e-17 1.8000000000000003 4.5257044491508017e-17
v -3.463824224941973e-17 1.8000000000000003 3.4638242249419735e-17
v -4.5257044491508017e-17 1.8000000000000003 1.87460816213052e-17
v -4.898587196589413e-17 1.8000000000000003 5.999039130647431e-33
v -4.525704449150802e-17 1.8000000000000003 -1.874608162130519e-17
v -3.463824224941974e-17 1.8000000000000003 -3.463824224941973e-17
v -1.8746081621305223e-17 1.8000000000000003 -4.5257044491508004e-17
v -8.998558695971146e-33 1.8000000000000003 -4.898587196589413e-17
v 1.8746081621305204e-17 1.8000000000000003 -4.525704449150801e-17
v 3.463824224941972e-17 1.8000000000000003 -3.463824224941974e-17
v 4.5257044491508004e-17 1.8000000000000003 -1.8746081621305223e-17
f 1 2 3
f 1 3 4
f 1 4 5
f 1 5 6
f 1 6 7
f 1 7 8
f 1 8 9
f 1 9 10
f 1 10 11
f 1 11 12
f 1 12 13
f 1 13 14
f 1 14 15
f 1 15 16
f 1 16 17
f 1 17 2
f 18 20 22
f 19 23 21
f 20 21 22
f 22 21 23
f 18 22 24
f 19 25 23
f 22 23 24
f 24 23 25
f 18 24 26
f 19 27 25
f 24 25 26
f 26 25 27
f 18 26 28
f 19 29 27
f 26 27 28
f 28 27 29
f 18 28 30
f 19 31 29
f 28 29 30
f 30 29 31
f 18 30 32
f 19 33 31
f 30 31 32
f 32 31 33
f 18 32 34
f 19 35 33
f 32 33 34
f 34 33 35
f 18 34 36
f 19 37 35
f 34 35 36
f 36 35 37
f 18 36 38
f 19 39 37
f 36 37 38
f 38 37 39
f 18 38 40
f 19 41 39
f 38 39 40
f 40 39 41
f 18 40 42
f 19 43 41
f 40 41 42
f 42 41 43
f 18 42 44
f 19 45 43
f 42 43 44
f 44 43 45
f 18 44 46
f 19 47 45
f 44 45 46
f 46 45 47
f 18 46 48
f 19 49 47
f 46 47 48
f 48 47 49
f 18 48 50
f 19 51 49
f 48 49 50
f 50 49 51
f 18 50 20
f 19 21 51
f 50 51 20
f 20 51 21
f 52 53 54
f 54 53 55
f 54 55 56
f 56 55 57
f 56 57 58
f 58 57 59
f 58 59 60
f 60 59 61
f 60 61 62
f 62 61 63
f 62 63 64
f 64 63 65
f 64 65 66
f 66 65 67
f 66 67 68
f 68 67 69
f 68 69 70
f 70 69 71
f 70 71 72
f 72 71 73
f 72 73 74
f 74 73 75
f 74 75 76
f 76 75 77
f 76 77 78
f 78 77 79
f 78 79 80
f 80 79 81
f 80 81 82
f 82 81 83
f 82 83 52
f 52 83 53
f 84 86 88
f 85 89 87
f 86 87 88
f 88 87 89
f 84 88 90
f 85 91 89
f 88 89 90
f 90 89 91
f 84 90 92
f 85 93 91
f 90 91 92
f 92 91 93
f 84 92 94
f 85 95 93
f 92 93 94
f 94 93 95
f 84 94 96
f 85 97 95
f 94 95 96
f 96 95 97
f 84 96 98
f 85 99 97
f 96 97 98
f 98 97 99
f 84 98 100
f 85 101 99
f 98 99 100
f 100 99 101
f 84 100 102
f 85 103 101
f 100 101 102
f 102 101 103
f 84 102 104
f 85 105 103
f 102 103 104
f 104 103 105
f 84 104 106
f 85 107 105
f 104 105 106
f 106 105 107
f 84 106 108
f 85 109 107
f 106 107 108
f 108 107 109
f 84 108 110
f 85 111 109
f 108 109 110
f 110 109 111
f 84 110 112
f 85 113 111
f 110 111 112
f 112 111 113
f 84 112 114
f 85 115 113
f 112 113 114
f 114 113 115
f 84 114 116
f 85 117 115
f 114 115 116
f 116 115 117
f 84 116 86
f 85 87 117
f 116 117 86
f 86 117 87
f 118 119 120
f 120 119 121
f 120 121 122
f 122 121 123
f 122 123 124
f 124 123 125
f 124 125 126
f 126 125 127
f 126 127 128
f 128 127 129
f 128 129 130
f 130 129 131
f 130 131 132
f 132 131 133
f 132 133 134
f 134 133 135
f 134 135 136
f 136 135 137
f 136 137 138
f 138 137 139
f 138 139 140
f 140 139 141
f 140 141 142
f 142 141 143
f 142 143 144
f 144 143 145
f 144 145 146
f 146 145 147
f 146 147 148
f 148 147 149
f 148 149 118
f 118 149 119
f 150 152 154
f 151 155 153
f 152 153 154
f 154 153 155
f 150 154 156
f 151 157 155
f 154 155 156
f 156 155 157
f 150 156 158
f 151 159 157
f 156 157 158
f 158 157 159
f 150 158 160
f 151 161 159
f 158 159 160
f 160 159 161
f 150 160 162
f 151 163 161
f 160 161 162
f 162 161 163
f 150 162 164
f 151 165 163
f 162 163 164
f 164 163 165
f 150 164 166
f 151 167 165
f 164 165 166
f 166 165 167
f 150 166 168
f 151 169 167
f 166 167 168
f 168 167 169
f 150 168 170
f 151 171 169
f 168 169 170
f 170 169 171
f 150 170 172
f 151 173 171
f 170 171 172
f 172 171 173
f 150 172 174
f 151 175 173
f 172 173 174
f 174 173 175
f 150 174 176
f 151 177 175
f 174 175 176
f 176 175 177
f 150 176 178
f 151 179 177
f 176 177 178
f 178 177 179
f 150 178 180
f 151 181 179
f 178 179 180
f 180 179 181
f 150 180 182
f 151 183 181
f 180 181 182
f 182 181 183
f 150 182 152
f 151 153 183
f 182 183 152
f 152 183 153
f 184 200 185
f 185 200 201
f 185 201 186
f 186 201 202
f 186 202 187
f 187 202 203
f 187 203 188
f 188 203 204
f 188 204 189
f 189 204 205
f 189 205 190
f 190 205 206
f 190 206 191
f 191 206 207
f 191 207 192
f 192 207 208
f 192 208 193
f 193 208 209
f 193 209 194
f 194 209 210
f 194 210 195
f 195 210 211
f 195 211 196
f 196 211 212
f 196 212 197
f 197 212 213
f 197 213 198
f 198 213 214
f 198 214 199
f 199 214 215
f 199 215 184
f 184 215 200
f 200 216 201
f 201 216 217
f 201 217 202
f 202 217 218
f 202 218 203
f 203 218 219
f 203 219 204
f 204 219 220
f 204 220 205
f 205 220 221
f 205 221 206
f 206 221 222
f 206 222 207
f 207 222 223
f 207 223 208
f 208 223 224
f 208 224 209
f 209 224 225
f 209 225 210
f 210 225 226
f 210 226 211
f 211 226 227
f 211 227 212
f 212 227 228
f 212 228 213
f 213 228 229
f 213 229 214
f 214 229 230
f 214 230 215
f 215 230 231
f 215 231 200
f 200 231 216
f 216 232 217
f 217 232 233
f 217 233 218
f 218 233 234
f 218 234 219
f 219 234 235
f 219 235 220
f 220 235 236
f 220 236 221
f 221 236 237
f 221 237 222
f 222 237 238
f 222 238 223
f 223 238 239
f 223 239 224
f 224 239 240
f 224 240 225
f 225 240 241
f 225 241 226
f 226 241 242
f 226 242 227
f 227 242 243
f 227 243 228
f 228 243 244
f 228 244 229
f 229 244 245
f 229 245 230
f 230 245 246
f 230 246 231
f 231 246 247
f 231 247 216
f 216 247 232
f 232 248 233
f 233 248 249
f 233 249 234
f 234 249 250
f 234 250 235
f 235 250 251
f 235 251 236
f 236 251 252
f 236 252 237
f 237 252 253
f 237 253 238
f 238 253 254
f 238 254 239
f 239 254 255
f 239 255 240
f 240 255 256
f 240 256 241
f 241 256 257
f 241 257 242
f 242 257 258
f 242 258 243
f 243 258 259
f 243 259 244
f 244 259 260
f 244 260 245
f 245 260 261
f 245 261 246
f 246 261 262
f 246 262 247
f 247 262 263
f 247 263 232
f 232 263 248
f 248 264 249
f 249 264 265
f 249 265 250
f 250 265 266
f 250 266 251
f 251 266 267
f 251 267 252
f 252 267 268
f 252 268 253
f 253 268 269
f 253 269 254
f 254 269 270
f 254 270 255
f 255 270 271
f 255 271 256
f 256 271 272
f 256 272 257
f 257 272 273
f 257 273 258
f 258 273 274
f 258 274 259
f 259 274 275
f 259 275 260
f 260 275 276
f 260 276 261
f 261 276 277
f 261 277 262
f 262 277 278
f 262 278 263
f 263 278 279
f 263 279 248
f 248 279 264
f 264 280 265
f 265 280 281
f 265 281 266
f 266 281 282
f 266 282 267
f 267 282 283
f 267 283 268
f 268 283 284
f 268 284 269
f 269 284 285
f 269 285 270
f 270 285 286
f 270 286 271
f 271 286 287
f 271 287 272
f 272 287 288
f 272 288 273
f 273 288 289
f 273 289 274
f 274 289 290
f 274 290 275
f 275 290 291
f 275 291 276
f 276 291 292
f 276 292 277
f 277 292 293
f 277 293 278
f 278 293 294
f 278 294 279
f 279 294 295
f 279 295 264
f 264 295 280
f 280 296 281
f 281 296 297
f 281 297 282
f 282 297 298
f 282 298 283
f 283 298 299
f 283 299 284
f 284 299 300
f 284 300 285
f 285 300 301
f 285 301 286
f 286 301 302
f 286 302 287
f 287 302 303
f 287 303 288
f 288 303 304
f 288 304 289
f 289 304 305
f 289 305 290
f 290 305 306
f 290 306 291
f 291 306 307
f 291 307 292
f 292 307 308
f 292 308 293
f 293 308 309
f 293 309 294
f 294 309 310
f 294 310 295
f 295 310 311
f 295 311 280
f 280 311 296
f 296 312 297
f 297 312 313
f 297 313 298
f 298 313 314
f 298 314 299
f 299 314 315
f 299 315 300
f 300 315 316
f 300 316 301
f 301 316 317
f 301 317 302
f 302 317 318
f 302 318 303
f 303 318 319
f 303 319 304
f 304 319 320
f 304 320 305
f 305 320 321
f 305 321 306
f 306 321 322
f 306 322 307
f 307 322 323
f 307 323 308
f 308 323 324
f 308 324 309
f 309 324 325
f 309 325 310
f 310 325 326
f 310 326 311
f 311 326 327
f 311 327 296
f 296 327 312
f 312 328 313
f 313 328 329
f 313 329 314
f 314 329 330
f 314 330 315
f 315 330 331
f 315 331 316
f 316 331 332
f 316 332 317
f 317 332 333
f 317 333 318
f 318 333 334
f 318 334 319
f 319 334 335
f 319 335 320
f 320 335 336
f 320 336 321
f 321 336 337
f 321 337 322
f 322 337 338
f 322 338 323
f 323 338 339
f 323 339 324
f 324 339 340
f 324 340 325
f 325 340 341
f 325 341 326
f 326 341 342
f 326 342 327
f 327 342 343
f 327 343 312
f 312 343 328
f 328 344 329
f 329 344 345
f 329 345 330
f 330 345 346
f 330 346 331
f 331 346 347
f 331 347 332
f 332 347 348
f 332 348 333
f 333 348 349
f 333 349 334
f 334 349 350
f 334 350 335
f 335 350 351
f 335 351 336
f 336 351 352
f 336 352 337
f 337 352 353
f 337 353 338
f 338 353 354
f 338 354 339
f 339 354 355
f 339 355 340
f 340 355 356
f 340 356 341
f 341 356 357
f 341 357 342
f 342 357 358
f 342 358 343
f 343 358 359
f 343 359 328
f 328 359 344
f 344 360 345
f 345 360 361
f 345 361 346
f 346 361 362
f 346 362 347
f 347 362 363
f 347 363 348
f 348 363 364
f 348 364 349
f 349 364 365
f 349 365 350
f 350 365 366
f 350 366 351
f 351 366 367
f 351 367 352
f 352 367 368
f 352 368 353
f 353 368 369
f 353 369 354
f 354 369 370
f 354 370 355
f 355 370 371
f 355 371 356
f 356 371 372
f 356 372 357
f 357 372 373
f 357 373 358
f 358 373 374
f 358 374 359
f 359 374 375
f 359 375 344
f 344 375 360
f 360 376 361
f 361 376 377
f 361 377 362
f 362 377 378
f 362 378 363
f 363 378 379
f 363 379 364
f 364 379 380
f 364 380 365
f 365 380 381
f 365 381 366
f 366 381 382
f 366 382 367
f 367 382 383
f 367 383 368
f 368 383 384
f 368 384 369
f 369 384 385
f 369 385 370
f 370 385 386
f 370 386 371
f 371 386 387
f 371 387 372
f 372 387 388
f 372 388 373
f 373 388 389
f 373 389 374
f 374 389 390
f 374 390 375
f 375 390 391
f 375 391 360
f 360 391 376
