v -4.0 0.0 -4.0
v -3.041015625 0.0 -4.615234375
v -2.046875 0.0 -4.703125
v -1.029296875 0.0 -4.439453125
v 0.0 0.0 -4.0
v 1.029296875 0.0 -3.560546875
v 2.046875 0.0 -3.296875
v 3.041015625 0.0 -3.384765625
v 4.0 0.0 -4.0
v -4.615234375 0.0 -3.041015625
v -3.4519729614257812 0.107666015625 -3.4519729614257812
v -2.29681396484375 0.1845703125 -3.51068115234375
v -1.1470565795898438 0.230712890625 -3.3345565795898438
v 0.0 0.24609375 -3.041015625
v 1.1470565795898438 0.230712890625 -2.7474746704101562
v 2.29681396484375 0.1845703125 -2.57135009765625
v 3.4519729614257812 0.107666015625 -2.6300582885742188
v 4.615234375 0.0 -3.041015625
v -4.703125 0.0 -2.046875
v -3.51068115234375 0.1845703125 -2.29681396484375
v -2.33251953125 0.31640625 -2.33251953125
v -1.16387939453125 0.3955078125 -2.22540283203125
v 0.0 0.421875 -2.046875
v 1.16387939453125 0.3955078125 -1.86834716796875
v 2.33251953125 0.31640625 -1.76123046875
v 3.51068115234375 0.1845703125 -1.79693603515625
v 4.703125 0.0 -2.046875
v -4.439453125 0.0 -1.029296875
v -3.3345565795898438 0.230712890625 -1.1470565795898438
v -2.22540283203125 0.3955078125 -1.16387939453125
v -1.1134109497070312 0.494384765625 -1.1134109497070312
v 0.0 0.52734375 -1.029296875
v 1.1134109497070312 0.494384765625 -0.9451828002929688
v 2.22540283203125 0.3955078125 -0.89471435546875
v 3.3345565795898438 0.230712890625 -0.9115371704101562
v 4.439453125 0.0 -1.029296875
v -4.0 0.0 0.0
v -3.041015625 0.24609375 0.0
v -2.046875 0.421875 0.0
v -1.029296875 0.52734375 0.0
v 0.0 0.5625 0.0
v 1.029296875 0.52734375 0.0
v 2.046875 0.421875 0.0
v 3.041015625 0.24609375 0.0
v 4.0 0.0 0.0
v -3.560546875 0.0 1.029296875
v -2.7474746704101562 0.230712890625 1.1470565795898438
v -1.86834716796875 0.3955078125 1.16387939453125
v -0.9451828002929688 0.494384765625 1.1134109497070312
v 0.0 0.52734375 1.029296875
v 0.9451828002929688 0.494384765625 0.9451828002929688
v 1.86834716796875 0.3955078125 0.89471435546875
v 2.7474746704101562 0.230712890625 0.9115371704101562
v 3.560546875 0.0 1.029296875
v -3.296875 0.0 2.046875
v -2.57135009765625 0.1845703125 2.29681396484375
v -1.76123046875 0.31640625 2.33251953125
v -0.89471435546875 0.3955078125 2.22540283203125
v 0.0 0.421875 2.046875
v 0.89471435546875 0.3955078125 1.86834716796875
v 1.76123046875 0.31640625 1.76123046875
v 2.57135009765625 0.1845703125 1.79693603515625
v 3.296875 0.0 2.046875
v -3.384765625 0.0 3.041015625
v -2.6300582885742188 0.107666015625 3.4519729614257812
v -1.79693603515625 0.1845703125 3.51068115234375
v -0.9115371704101562 0.230712890625 3.3345565795898438
v 0.0 0.24609375 3.041015625
v 0.9115371704101562 0.230712890625 2.7474746704101562
v 1.79693603515625 0.1845703125 2.57135009765625
v 2.6300582885742188 0.107666015625 2.6300582885742188
v 3.384765625 0.0 3.041015625
v -4.0 0.0 4.0
v -3.041015625 0.0 4.615234375
v -2.046875 0.0 4.703125
v -1.029296875 0.0 4.439453125
v 0.0 0.0 4.0
v 1.029296875 0.0 3.560546875
v 2.046875 0.0 3.296875
v 3.041015625 0.0 3.384765625
v 4.0 0.0 4.0
v -4.0 1.5 -4.0
v -3.041015625 1.5 -4.615234375
v -2.046875 1.5 -4.703125
v -1.029296875 1.5 -4.439453125
v 0.0 1.5 -4.0
v 1.029296875 1.5 -3.560546875
v 2.046875 1.5 -3.296875
v 3.041015625 1.5 -3.384765625
v 4.0 1.5 -4.0
v -4.615234375 1.5 -3.041015625
v -3.4519729614257812 1.607666015625 -3.4519729614257812
v -2.29681396484375 1.6845703125 -3.51068115234375
v -1.1470565795898438 1.730712890625 -3.3345565795898438
v 0.0 1.74609375 -3.041015625
v 1.1470565795898438 1.730712890625 -2.7474746704101562
v 2.29681396484375 1.6845703125 -2.57135009765625
v 3.4519729614257812 1.607666015625 -2.6300582885742188
v 4.615234375 1.5 -3.041015625
v -4.703125 1.5 -2.046875
v -3.51068115234375 1.6845703125 -2.29681396484375
v -2.33251953125 1.81640625 -2.33251953125
v -1.16387939453125 1.8955078125 -2.22540283203125
v 0.0 1.921875 -2.046875
v 1.16387939453125 1.8955078125 -1.86834716796875
v 2.33251953125 1.81640625 -1.76123046875
v 3.51068115234375 1.6845703125 -1.79693603515625
v 4.703125 1.5 -2.046875
v -4.439453125 1.5 -1.029296875
v -3.3345565795898438 1.730712890625 -1.1470565795898438
v -2.22540283203125 1.8955078125 -1.16387939453125
v -1.1134109497070312 1.994384765625 -1.1134109497070312
v 0.0 2.02734375 -1.029296875
v 1.1134109497070312 1.994384765625 -0.9451828002929688
v 2.22540283203125 1.8955078125 -0.89471435546875
v 3.3345565795898438 1.730712890625 -0.9115371704101562
v 4.439453125 1.5 -1.029296875
v -4.0 1.5 0.0
v -3.041015625 1.74609375 0.0
v -2.046875 1.921875 0.0
v -1.029296875 2.02734375 0.0
v 0.0 2.0625 0.0
v 1.029296875 2.02734375 0.0
v 2.046875 1.921875 0.0
v 3.041015625 1.74609375 0.0
v 4.0 1.5 0.0
v -3.560546875 1.5 1.029296875
v -2.7474746704101562 1.730712890625 1.1470565795898438
v -1.86834716796875 1.8955078125 1.16387939453125
v -0.9451828002929688 1.994384765625 1.1134109497070312
v 0.0 2.02734375 1.029296875
v 0.9451828002929688 1.994384765625 0.9451828002929688
v 1.86834716796875 1.8955078125 0.89471435546875
v 2.7474746704101562 1.730712890625 0.9115371704101562
v 3.560546875 1.5 1.029296875
v -3.296875 1.5 2.046875
v -2.57135009765625 1.6845703125 2.29681396484375
v -1.76123046875 1.81640625 2.33251953125
v -0.89471435546875 1.8955078125 2.22540283203125
v 0.0 1.921875 2.046875
v 0.89471435546875 1.8955078125 1.86834716796875
v 1.76123046875 1.81640625 1.76123046875
v 2.57135009765625 1.6845703125 1.79693603515625
v 3.296875 1.5 2.046875
v -3.384765625 1.5 3.041015625
v -2.6300582885742188 1.607666015625 3.4519729614257812
v -1.79693603515625 1.6845703125 3.51068115234375
v -0.9115371704101562 1.730712890625 3.3345565795898438
v 0.0 1.74609375 3.041015625
v 0.9115371704101562 1.730712890625 2.7474746704101562
v 1.79693603515625 1.6845703125 2.57135009765625
v 2.6300582885742188 1.607666015625 2.6300582885742188
v 3.384765625 1.5 3.041015625
v -4.0 1.5 4.0
v -3.041015625 1.5 4.615234375
v -2.046875 1.5 4.703125
v -1.029296875 1.5 4.439453125
v 0.0 1.5 4.0
v 1.029296875 1.5 3.560546875
v 2.046875 1.5 3.296875
v 3.041015625 1.5 3.384765625
v 4.0 1.5 4.0
f 1 11 10
f 1 2 11
f 82 91 92
f 82 92 83
f 2 12 11
f 2 3 12
f 83 92 93
f 83 93 84
f 3 13 12
f 3 4 13
f 84 93 94
f 84 94 85
f 4 14 13
f 4 5 14
f 85 94 95
f 85 95 86
f 5 15 14
f 5 6 15
f 86 95 96
f 86 96 87
f 6 16 15
f 6 7 16
f 87 96 97
f 87 97 88
f 7 17 16
f 7 8 17
f 88 97 98
f 88 98 89
f 8 18 17
f 8 9 18
f 89 98 99
f 89 99 90
f 10 20 19
f 10 11 20
f 91 100 101
f 91 101 92
f 11 21 20
f 11 12 21
f 92 101 102
f 92 102 93
f 12 22 21
f 12 13 22
f 93 102 103
f 93 103 94
f 13 23 22
f 13 14 23
f 94 103 104
f 94 104 95
f 14 24 23
f 14 15 24
f 95 104 105
f 95 105 96
f 15 25 24
f 15 16 25
f 96 105 106
f 96 106 97
f 16 26 25
f 16 17 26
f 97 106 107
f 97 107 98
f 17 27 26
f 17 18 27
f 98 107 108
f 98 108 99
f 19 29 28
f 19 20 29
f 100 109 110
f 100 110 101
f 20 30 29
f 20 21 30
f 101 110 111
f 101 111 102
f 21 31 30
f 21 22 31
f 102 111 112
f 102 112 103
f 22 32 31
f 22 23 32
f 103 112 113
f 103 113 104
f 23 33 32
f 23 24 33
f 104 113 114
f 104 114 105
f 24 34 33
f 24 25 34
f 105 114 115
f 105 115 106
f 25 35 34
f 25 26 35
f 106 115 116
f 106 116 107
f 26 36 35
f 26 27 36
f 107 116 117
f 107 117 108
f 28 38 37
f 28 29 38
f 109 118 119
f 109 119 110
f 29 39 38
f 29 30 39
f 110 119 120
f 110 120 111
f 30 40 39
f 30 31 40
f 111 120 121
f 111 121 112
f 31 41 40
f 31 32 41
f 112 121 122
f 112 122 113
f 32 42 41
f 32 33 42
f 113 122 123
f 113 123 114
f 33 43 42
f 33 34 43
f 114 123 124
f 114 124 115
f 34 44 43
f 34 35 44
f 115 124 125
f 115 125 116
f 35 45 44
f 35 36 45
f 116 125 126
f 116 126 117
f 37 47 46
f 37 38 47
f 118 127 128
f 118 128 119
f 38 48 47
f 38 39 48
f 119 128 129
f 119 129 120
f 39 49 48
f 39 40 49
f 120 129 130
f 120 130 121
f 40 50 49
f 40 41 50
f 121 130 131
f 121 131 122
f 41 51 50
f 41 42 51
f 122 131 132
f 122 132 123
f 42 52 51
f 42 43 52
f 123 132 133
f 123 133 124
f 43 53 52
f 43 44 53
f 124 133 134
f 124 134 125
f 44 54 53
f 44 45 54
f 125 134 135
f 125 135 126
f 46 56 55
f 46 47 56
f 127 136 137
f 127 137 128
f 47 57 56
f 47 48 57
f 128 137 138
f 128 138 129
f 48 58 57
f 48 49 58
f 129 138 139
f 129 139 130
f 49 59 58
f 49 50 59
f 130 139 140
f 130 140 131
f 50 60 59
f 50 51 60
f 131 140 141
f 131 141 132
f 51 61 60
f 51 52 61
f 132 141 142
f 132 142 133
f 52 62 61
f 52 53 62
f 133 142 143
f 133 143 134
f 53 63 62
f 53 54 63
f 134 143 144
f 134 144 135
f 55 65 64
f 55 56 65
f 136 145 146
f 136 146 137
f 56 66 65
f 56 57 66
f 137 146 147
f 137 147 138
f 57 67 66
f 57 58 67
f 138 147 148
f 138 148 139
f 58 68 67
f 58 59 68
f 139 148 149
f 139 149 140
f 59 69 68
f 59 60 69
f 140 149 150
f 140 150 141
f 60 70 69
f 60 61 70
f 141 150 151
f 141 151 142
f 61 71 70
f 61 62 71
f 142 151 152
f 142 152 143
f 62 72 71
f 62 63 72
f 143 152 153
f 143 153 144
f 64 74 73
f 64 65 74
f 145 154 155
f 145 155 146
f 65 75 74
f 65 66 75
f 146 155 156
f 146 156 147
f 66 76 75
f 66 67 76
f 147 156 157
f 147 157 148
f 67 77 76
f 67 68 77
f 148 157 158
f 148 158 149
f 68 78 77
f 68 69 78
f 149 158 159
f 149 159 150
f 69 79 78
f 69 70 79
f 150 159 160
f 150 160 151
f 70 80 79
f 70 71 80
f 151 160 161
f 151 161 152
f 71 81 80
f 71 72 81
f 152 161 162
f 152 162 153
f 1 82 83
f 1 83 2
f 73 74 155
f 73 155 154
f 2 83 84
f 2 84 3
f 74 75 156
f 74 156 155
f 3 84 85
f 3 85 4
f 75 76 157
f 75 157 156
f 4 85 86
f 4 86 5
f 76 77 158
f 76 158 157
f 5 86 87
f 5 87 6
f 77 78 159
f 77 159 158
f 6 87 88
f 6 88 7
f 78 79 160
f 78 160 159
f 7 88 89
f 7 89 8
f 79 80 161
f 79 161 160
f 8 89 90
f 8 90 9
f 80 81 162
f 80 162 161
f 1 10 91
f 1 91 82
f 9 90 99
f 9 99 18
f 10 19 100
f 10 100 91
f 18 99 108
f 18 108 27
f 19 28 109
f 19 109 100
f 27 108 117
f 27 117 36
f 28 37 118
f 28 118 109
f 36 117 126
f 36 126 45
f 37 46 127
f 37 127 118
f 45 126 135
f 45 135 54
f 46 55 136
f 46 136 127
f 54 135 144
f 54 144 63
f 55 64 145
f 55 145 136
f 63 144 153
f 63 153 72
f 64 73 154
f 64 154 145
f 72 153 162
f 72 162 81
