v 0.0 0.3 0.0
v 0.0 0.0 0.0
v 0.9 0.3 0.0
v 0.9 0.0 0.0
v 0.831491579260158 0.3 0.3444150891285808
v 0.831491579260158 0.0 0.3444150891285808
v 0.6363961030678928 0.3 0.6363961030678928
v 0.6363961030678928 0.0 0.6363961030678928
v 0.3444150891285809 0.3 0.831491579260158
v 0.3444150891285809 0.0 0.831491579260158
v 5.5109105961630896e-17 0.3 0.9
v 5.5109105961630896e-17 0.0 0.9
v -0.34441508912858076 0.3 0.831491579260158
v -0.34441508912858076 0.0 0.831491579260158
v -0.6363961030678927 0.3 0.6363961030678928
v -0.6363961030678927 0.0 0.6363961030678928
v -0.831491579260158 0.3 0.34441508912858093
v -0.831491579260158 0.0 0.34441508912858093
v -0.9 0.3 1.1021821192326179e-16
v -0.9 0.0 1.1021821192326179e-16
v -0.8314915792601582 0.3 -0.3444150891285807
v -0.8314915792601582 0.0 -0.3444150891285807
v -0.636396103067893 0.3 -0.6363961030678927
v -0.636396103067893 0.0 -0.6363961030678927
v -0.3444150891285813 0.3 -0.8314915792601579
v -0.3444150891285813 0.0 -0.8314915792601579
v -1.6532731788489269e-16 0.3 -0.9
v -1.6532731788489269e-16 0.0 -0.9
v 0.344415089128581 0.3 -0.8314915792601579
v 0.344415089128581 0.0 -0.8314915792601579
v 0.6363961030678926 0.3 -0.636396103067893
v 0.6363961030678926 0.0 -0.636396103067893
v 0.8314915792601579 0.3 -0.3444150891285814
v 0.8314915792601579 0.0 -0.3444150891285814
v 0.8 0.38 0.0
v 0.6 0.38 0.0
v 0.8 0.28 0.0
v 0.6 0.28 0.0
v 0.7391036260090295 0.38 0.30614674589207186
v 0.5543277195067721 0.38 0.22961005941905385
v 0.7391036260090295 0.28 0.30614674589207186
v 0.5543277195067721 0.28 0.22961005941905385
v 0.5656854249492381 0.38 0.5656854249492381
v 0.4242640687119285 0.38 0.4242640687119285
v 0.5656854249492381 0.28 0.5656854249492381
v 0.4242640687119285 0.28 0.4242640687119285
v 0.3061467458920719 0.38 0.7391036260090295
v 0.22961005941905388 0.38 0.5543277195067721
v 0.3061467458920719 0.28 0.7391036260090295
v 0.22961005941905388 0.28 0.5543277195067721
v 4.898587196589413e-17 0.38 0.8
v 3.6739403974420595e-17 0.38 0.6
v 4.898587196589413e-17 0.28 0.8
v 3.6739403974420595e-17 0.28 0.6
v -0.3061467458920718 0.38 0.7391036260090295
v -0.22961005941905382 0.38 0.5543277195067721
v -0.3061467458920718 0.28 0.7391036260090295
v -0.22961005941905382 0.28 0.5543277195067721
v -0.565685424949238 0.38 0.5656854249492381
v -0.42426406871192845 0.38 0.4242640687119285
v -0.565685424949238 0.28 0.5656854249492381
v -0.42426406871192845 0.28 0.4242640687119285
v -0.7391036260090295 0.38 0.3061467458920719
v -0.5543277195067721 0.38 0.22961005941905394
v -0.7391036260090295 0.28 0.3061467458920719
v -0.5543277195067721 0.28 0.22961005941905394
v -0.8 0.38 9.797174393178826e-17
v -0.6 0.38 7.347880794884119e-17
v -0.8 0.28 9.797174393178826e-17
v -0.6 0.28 7.347880794884119e-17
v -0.7391036260090296 0.38 -0.30614674589207175
v -0.5543277195067721 0.38 -0.2296100594190538
v -0.7391036260090296 0.28 -0.30614674589207175
v -0.5543277195067721 0.28 -0.2296100594190538
v -0.5656854249492381 0.38 -0.565685424949238
v -0.4242640687119286 0.38 -0.42426406871192845
v -0.5656854249492381 0.28 -0.565685424949238
v -0.4242640687119286 0.28 -0.42426406871192845
v -0.3061467458920723 0.38 -0.7391036260090292
v -0.22961005941905419 0.38 -0.5543277195067718
v -0.3061467458920723 0.28 -0.7391036260090292
v -0.22961005941905419 0.28 -0.5543277195067718
v -1.4695761589768238e-16 0.38 -0.8
v -1.1021821192326178e-16 0.38 -0.6
v -1.4695761589768238e-16 0.28 -0.8
v -1.1021821192326178e-16 0.28 -0.6
v 0.306146745892072 0.38 -0.7391036260090293
v 0.229610059419054 0.38 -0.554327719506772
v 0.306146745892072 0.28 -0.7391036260090293
v 0.229610059419054 0.28 -0.554327719506772
v 0.5656854249492379 0.38 -0.5656854249492381
v 0.4242640687119284 0.38 -0.4242640687119286
v 0.5656854249492379 0.28 -0.5656854249492381
v 0.4242640687119284 0.28 -0.4242640687119286
v 0.7391036260090292 0.38 -0.30614674589207236
v 0.5543277195067718 0.38 -0.2296100594190542
v 0.7391036260090292 0.28 -0.30614674589207236
v 0.5543277195067718 0.28 -0.2296100594190542
v 0.5 0.38 0.0
v 0.3 0.38 0.0
v 0.5 0.28 0.0
v 0.3 0.28 0.0
v 0.46193976625564337 0.38 0.1913417161825449
v 0.27716385975338603 0.38 0.11480502970952693
v 0.46193976625564337 0.28 0.1913417161825449
v 0.27716385975338603 0.28 0.11480502970952693
v 0.3535533905932738 0.38 0.3535533905932738
v 0.21213203435596426 0.38 0.21213203435596426
v 0.3535533905932738 0.28 0.3535533905932738
v 0.21213203435596426 0.28 0.21213203435596426
v 0.19134171618254492 0.38 0.46193976625564337
v 0.11480502970952694 0.38 0.27716385975338603
v 0.19134171618254492 0.28 0.46193976625564337
v 0.11480502970952694 0.28 0.27716385975338603
v 3.061616997868383e-17 0.38 0.5
v 1.8369701987210297e-17 0.38 0.3
v 3.061616997868383e-17 0.28 0.5
v 1.8369701987210297e-17 0.28 0.3
v -0.19134171618254486 0.38 0.46193976625564337
v -0.11480502970952691 0.38 0.27716385975338603
v -0.19134171618254486 0.28 0.46193976625564337
v -0.11480502970952691 0.28 0.27716385975338603
v -0.35355339059327373 0.38 0.3535533905932738
v -0.21213203435596423 0.38 0.21213203435596426
v -0.35355339059327373 0.28 0.3535533905932738
v -0.21213203435596423 0.28 0.21213203435596426
v -0.46193976625564337 0.38 0.19134171618254495
v -0.27716385975338603 0.38 0.11480502970952697
v -0.46193976625564337 0.28 0.19134171618254495
v -0.27716385975338603 0.28 0.11480502970952697
v -0.5 0.38 6.123233995736766e-17
v -0.3 0.38 3.6739403974420595e-17
v -0.5 0.28 6.123233995736766e-17
v -0.3 0.28 3.6739403974420595e-17
v -0.4619397662556434 0.38 -0.19134171618254484
v -0.27716385975338603 0.38 -0.1148050297095269
v -0.4619397662556434 0.28 -0.19134171618254484
v -0.27716385975338603 0.28 -0.1148050297095269
v -0.35355339059327384 0.38 -0.35355339059327373
v -0.2121320343559643 0.38 -0.21213203435596423
v -0.35355339059327384 0.28 -0.35355339059327373
v -0.2121320343559643 0.28 -0.21213203435596423
v -0.19134171618254517 0.38 -0.46193976625564326
v -0.11480502970952709 0.38 -0.2771638597533859
v -0.19134171618254517 0.28 -0.46193976625564326
v -0.11480502970952709 0.28 -0.2771638597533859
v -9.184850993605148e-17 0.38 -0.5
v -5.510910596163089e-17 0.38 -0.3
v -9.184850993605148e-17 0.28 -0.5
v -5.510910596163089e-17 0.28 -0.3
v 0.191341716182545 0.38 -0.4619397662556433
v 0.114805029709527 0.38 -0.277163859753386
v 0.191341716182545 0.28 -0.4619397662556433
v 0.114805029709527 0.28 -0.277163859753386
v 0.3535533905932737 0.38 -0.35355339059327384
v 0.2121320343559642 0.38 -0.2121320343559643
v 0.3535533905932737 0.28 -0.35355339059327384
v 0.2121320343559642 0.28 -0.2121320343559643
v 0.46193976625564326 0.38 -0.1913417161825452
v 0.2771638597533859 0.38 -0.1148050297095271
v 0.46193976625564326 0.28 -0.1913417161825452
v 0.2771638597533859 0.28 -0.1148050297095271
v 0.0 0.38 0.0
v 0.0 0.28 0.0
v 0.2 0.38 0.0
v 0.2 0.28 0.0
v 0.18477590650225736 0.38 0.07653668647301796
v 0.18477590650225736 0.28 0.07653668647301796
v 0.14142135623730953 0.38 0.14142135623730953
v 0.14142135623730953 0.28 0.14142135623730953
v 0.07653668647301798 0.38 0.18477590650225736
v 0.07653668647301798 0.28 0.18477590650225736
v 1.2246467991473533e-17 0.38 0.2
v 1.2246467991473533e-17 0.28 0.2
v -0.07653668647301795 0.38 0.18477590650225736
v -0.07653668647301795 0.28 0.18477590650225736
v -0.1414213562373095 0.38 0.14142135623730953
v -0.1414213562373095 0.28 0.14142135623730953
v -0.18477590650225736 0.38 0.07653668647301798
v -0.18477590650225736 0.28 0.07653668647301798
v -0.2 0.38 2.4492935982947065e-17
v -0.2 0.28 2.4492935982947065e-17
v -0.1847759065022574 0.38 -0.07653668647301794
v -0.1847759065022574 0.28 -0.07653668647301794
v -0.14142135623730953 0.38 -0.1414213562373095
v -0.14142135623730953 0.28 -0.1414213562373095
v -0.07653668647301808 0.38 -0.1847759065022573
v -0.07653668647301808 0.28 -0.1847759065022573
v -3.6739403974420595e-17 0.38 -0.2
v -3.6739403974420595e-17 0.28 -0.2
v 0.076536686473018 0.38 -0.18477590650225734
v 0.076536686473018 0.28 -0.18477590650225734
v 0.14142135623730948 0.38 -0.14142135623730953
v 0.14142135623730948 0.28 -0.14142135623730953
v 0.1847759065022573 0.38 -0.07653668647301809
v 0.1847759065022573 0.28 -0.07653668647301809
f 1 3 5
f 2 6 4
f 3 4 5
f 5 4 6
f 1 5 7
f 2 8 6
f 5 6 7
f 7 6 8
f 1 7 9
f 2 10 8
f 7 8 9
f 9 8 10
f 1 9 11
f 2 12 10
f 9 10 11
f 11 10 12
f 1 11 13
f 2 14 12
f 11 12 13
f 13 12 14
f 1 13 15
f 2 16 14
f 13 14 15
f 15 14 16
f 1 15 17
f 2 18 16
f 15 16 17
f 17 16 18
f 1 17 19
f 2 20 18
f 17 18 19
f 19 18 20
f 1 19 21
f 2 22 20
f 19 20 21
f 21 20 22
f 1 21 23
f 2 24 22
f 21 22 23
f 23 22 24
f 1 23 25
f 2 26 24
f 23 24 25
f 25 24 26
f 1 25 27
f 2 28 26
f 25 26 27
f 27 26 28
f 1 27 29
f 2 30 28
f 27 28 29
f 29 28 30
f 1 29 31
f 2 32 30
f 29 30 31
f 31 30 32
f 1 31 33
f 2 34 32
f 31 32 33
f 33 32 34
f 1 33 3
f 2 4 34
f 33 34 3
f 3 34 4
f 35 39 36
f 36 39 40
f 37 38 41
f 38 42 41
f 35 37 39
f 39 37 41
f 36 40 38
f 40 42 38
f 39 43 40
f 40 43 44
f 41 42 45
f 42 46 45
f 39 41 43
f 43 41 45
f 40 44 42
f 44 46 42
f 43 47 44
f 44 47 48
f 45 46 49
f 46 50 49
f 43 45 47
f 47 45 49
f 44 48 46
f 48 50 46
f 47 51 48
f 48 51 52
f 49 50 53
f 50 54 53
f 47 49 51
f 51 49 53
f 48 52 50
f 52 54 50
f 51 55 52
f 52 55 56
f 53 54 57
f 54 58 57
f 51 53 55
f 55 53 57
f 52 56 54
f 56 58 54
f 55 59 56
f 56 59 60
f 57 58 61
f 58 62 61
f 55 57 59
f 59 57 61
f 56 60 58
f 60 62 58
f 59 63 60
f 60 63 64
f 61 62 65
f 62 66 65
f 59 61 63
f 63 61 65
f 60 64 62
f 64 66 62
f 63 67 64
f 64 67 68
f 65 66 69
f 66 70 69
f 63 65 67
f 67 65 69
f 64 68 66
f 68 70 66
f 67 71 68
f 68 71 72
f 69 70 73
f 70 74 73
f 67 69 71
f 71 69 73
f 68 72 70
f 72 74 70
f 71 75 72
f 72 75 76
f 73 74 77
f 74 78 77
f 71 73 75
f 75 73 77
f 72 76 74
f 76 78 74
f 75 79 76
f 76 79 80
f 77 78 81
f 78 82 81
f 75 77 79
f 79 77 81
f 76 80 78
f 80 82 78
f 79 83 80
f 80 83 84
f 81 82 85
f 82 86 85
f 79 81 83
f 83 81 85
f 80 84 82
f 84 86 82
f 83 87 84
f 84 87 88
f 85 86 89
f 86 90 89
f 83 85 87
f 87 85 89
f 84 88 86
f 88 90 86
f 87 91 88
f 88 91 92
f 89 90 93
f 90 94 93
f 87 89 91
f 91 89 93
f 88 92 90
f 92 94 90
f 91 95 92
f 92 95 96
f 93 94 97
f 94 98 97
f 91 93 95
f 95 93 97
f 92 96 94
f 96 98 94
f 95 35 96
f 96 35 36
f 97 98 37
f 98 38 37
f 95 97 35
f 35 97 37
f 96 36 98
f 36 38 98
f 99 103 100
f 100 103 104
f 101 102 105
f 102 106 105
f 99 101 103
f 103 101 105
f 100 104 102
f 104 106 102
f 103 107 104
f 104 107 108
f 105 106 109
f 106 110 109
f 103 105 107
f 107 105 109
f 104 108 106
f 108 110 106
f 107 111 108
f 108 111 112
f 109 110 113
f 110 114 113
f 107 109 111
f 111 109 113
f 108 112 110
f 112 114 110
f 111 115 112
f 112 115 116
f 113 114 117
f 114 118 117
f 111 113 115
f 115 113 117
f 112 116 114
f 116 118 114
f 115 119 116
f 116 119 120
f 117 118 121
f 118 122 121
f 115 117 119
f 119 117 121
f 116 120 118
f 120 122 118
f 119 123 120
f 120 123 124
f 121 122 125
f 122 126 125
f 119 121 123
f 123 121 125
f 120 124 122
f 124 126 122
f 123 127 124
f 124 127 128
f 125 126 129
f 126 130 129
f 123 125 127
f 127 125 129
f 124 128 126
f 128 130 126
f 127 131 128
f 128 131 132
f 129 130 133
f 130 134 133
f 127 129 131
f 131 129 133
f 128 132 130
f 132 134 130
f 131 135 132
f 132 135 136
f 133 134 137
f 134 138 137
f 131 133 135
f 135 133 137
f 132 136 134
f 136 138 134
f 135 139 136
f 136 139 140
f 137 138 141
f 138 142 141
f 135 137 139
f 139 137 141
f 136 140 138
f 140 142 138
f 139 143 140
f 140 143 144
f 141 142 145
f 142 146 145
f 139 141 143
f 143 141 145
f 140 144 142
f 144 146 142
f 143 147 144
f 144 147 148
f 145 146 149
f 146 150 149
f 143 145 147
f 147 145 149
f 144 148 146
f 148 150 146
f 147 151 148
f 148 151 152
f 149 150 153
f 150 154 153
f 147 149 151
f 151 149 153
f 148 152 150
f 152 154 150
f 151 155 152
f 152 155 156
f 153 154 157
f 154 158 157
f 151 153 155
f 155 153 157
f 152 156 154
f 156 158 154
f 155 159 156
f 156 159 160
f 157 158 161
f 158 162 161
f 155 157 159
f 159 157 161
f 156 160 158
f 160 162 158
f 159 99 160
f 160 99 100
f 161 162 101
f 162 102 101
f 159 161 99
f 99 161 101
f 160 100 162
f 100 102 162
f 163 165 167
f 164 168 166
f 165 166 167
f 167 166 168
f 163 167 169
f 164 170 168
f 167 168 169
f 169 168 170
f 163 169 171
f 164 172 170
f 169 170 171
f 171 170 172
f 163 171 173
f 164 174 172
f 171 172 173
f 173 172 174
f 163 173 175
f 164 176 174
f 173 174 175
f 175 174 176
f 163 175 177
f 164 178 176
f 175 176 177
f 177 176 178
f 163 177 179
f 164 180 178
f 177 178 179
f 179 178 180
f 163 179 181
f 164 182 180
f 179 180 181
f 181 180 182
f 163 181 183
f 164 184 182
f 181 182 183
f 183 182 184
f 163 183 185
f 164 186 184
f 183 184 185
f 185 184 186
f 163 185 187
f 164 188 186
f 185 186 187
f 187 186 188
f 163 187 189
f 164 190 188
f 187 188 189
f 189 188 190
f 163 189 191
f 164 192 190
f 189 190 191
f 191 190 192
f 163 191 193
f 164 194 192
f 191 192 193
f 193 192 194
f 163 193 195
f 164 196 194
f 193 194 195
f 195 194 196
f 163 195 165
f 164 166 196
f 195 196 165
f 165 196 166
