v 0 0 0
v 0.9 0 0.0
v 0.831491579260158 0 0.3444150891285808
v 0.6363961030678928 0 0.6363961030678928
v 0.3444150891285809 0 0.831491579260158
v 5.5109105961630896e-17 0 0.9
v -0.34441508912858076 0 0.831491579260158
v -0.6363961030678927 0 0.6363961030678928
v -0.831491579260158 0 0.34441508912858093
v -0.9 0 1.1021821192326179e-16
v -0.8314915792601582 0 -0.3444150891285807
v -0.636396103067893 0 -0.6363961030678927
v -0.3444150891285813 0 -0.8314915792601579
v -1.6532731788489269e-16 0 -0.9
v 0.344415089128581 0 -0.8314915792601579
v 0.6363961030678926 0 -0.636396103067893
v 0.8314915792601579 0 -0.3444150891285814
v 0.0 0.2 0.0
v 0.0 0.0 0.0
v 0.9 0.2 0.0
v 0.9 0.0 0.0
v 0.831491579260158 0.2 0.3444150891285808
v 0.831491579260158 0.0 0.3444150891285808
v 0.6363961030678928 0.2 0.6363961030678928
v 0.6363961030678928 0.0 0.6363961030678928
v 0.3444150891285809 0.2 0.831491579260158
v 0.3444150891285809 0.0 0.831491579260158
v 5.5109105961630896e-17 0.2 0.9
v 5.5109105961630896e-17 0.0 0.9
v -0.34441508912858076 0.2 0.831491579260158
v -0.34441508912858076 0.0 0.831491579260158
v -0.6363961030678927 0.2 0.6363961030678928
v -0.6363961030678927 0.0 0.6363961030678928
v -0.831491579260158 0.2 0.34441508912858093
v -0.831491579260158 0.0 0.34441508912858093
v -0.9 0.2 1.1021821192326179e-16
v -0.9 0.0 1.1021821192326179e-16
v -0.8314915792601582 0.2 -0.3444150891285807
v -0.8314915792601582 0.0 -0.3444150891285807
v -0.636396103067893 0.2 -0.6363961030678927
v -0.636396103067893 0.0 -0.6363961030678927
v -0.3444150891285813 0.2 -0.8314915792601579
v -0.3444150891285813 0.0 -0.8314915792601579
v -1.6532731788489269e-16 0.2 -0.9
v -1.6532731788489269e-16 0.0 -0.9
v 0.344415089128581 0.2 -0.8314915792601579
v 0.344415089128581 0.0 -0.8314915792601579
v 0.6363961030678926 0.2 -0.636396103067893
v 0.6363961030678926 0.0 -0.636396103067893
v 0.8314915792601579 0.2 -0.3444150891285814
v 0.8314915792601579 0.0 -0.3444150891285814
v 0.7 0.4 0.0
v 0.9 0.19999999999999998 0.0
v 0.6467156727579007 0.4 0.26787840265556284
v 0.831491579260158 0.19999999999999998 0.3444150891285808
v 0.4949747468305833 0.4 0.4949747468305833
v 0.6363961030678928 0.19999999999999998 0.6363961030678928
v 0.26787840265556284 0.4 0.6467156727579007
v 0.3444150891285809 0.19999999999999998 0.831491579260158
v 4.286263797015736e-17 0.4 0.7
v 5.5109105961630896e-17 0.19999999999999998 0.9
v -0.2678784026555628 0.4 0.6467156727579007
v -0.34441508912858076 0.19999999999999998 0.831491579260158
v -0.4949747468305832 0.4 0.4949747468305833
v -0.6363961030678927 0.19999999999999998 0.6363961030678928
v -0.6467156727579007 0.4 0.2678784026555629
v -0.831491579260158 0.19999999999999998 0.34441508912858093
v -0.7 0.4 8.572527594031472e-17
v -0.9 0.19999999999999998 1.1021821192326179e-16
v -0.6467156727579008 0.4 -0.26787840265556273
v -0.8314915792601582 0.19999999999999998 -0.3444150891285807
v -0.49497474683058335 0.4 -0.4949747468305832
v -0.636396103067893 0.19999999999999998 -0.6363961030678927
v -0.26787840265556323 0.4 -0.6467156727579005
v -0.3444150891285813 0.19999999999999998 -0.8314915792601579
v -1.2858791391047207e-16 0.4 -0.7
v -1.6532731788489269e-16 0.19999999999999998 -0.9
v 0.267878402655563 0.4 -0.6467156727579007
v 0.344415089128581 0.19999999999999998 -0.8314915792601579
v 0.4949747468305831 0.4 -0.49497474683058335
v 0.6363961030678926 0.19999999999999998 -0.636396103067893
v 0.6467156727579005 0.4 -0.26787840265556323
v 0.8314915792601579 0.19999999999999998 -0.3444150891285814
v 0.0 0.5499999999999999 0.0
v 0.0 0.39999999999999997 0.0
v 0.7 0.5499999999999999 0.0
v 0.7 0.39999999999999997 0.0
v 0.6467156727579007 0.5499999999999999 0.26787840265556284
v 0.6467156727579007 0.39999999999999997 0.26787840265556284
v 0.4949747468305833 0.5499999999999999 0.4949747468305833
v 0.4949747468305833 0.39999999999999997 0.4949747468305833
v 0.26787840265556284 0.5499999999999999 0.6467156727579007
v 0.26787840265556284 0.39999999999999997 0.6467156727579007
v 4.286263797015736e-17 0.5499999999999999 0.7
v 4.286263797015736e-17 0.39999999999999997 0.7
v -0.2678784026555628 0.5499999999999999 0.6467156727579007
v -0.2678784026555628 0.39999999999999997 0.6467156727579007
v -0.4949747468305832 0.5499999999999999 0.4949747468305833
v -0.4949747468305832 0.39999999999999997 0.4949747468305833
v -0.6467156727579007 0.5499999999999999 0.2678784026555629
v -0.6467156727579007 0.39999999999999997 0.2678784026555629
v -0.7 0.5499999999999999 8.572527594031472e-17
v -0.7 0.39999999999999997 8.572527594031472e-17
v -0.6467156727579008 0.5499999999999999 -0.26787840265556273
v -0.6467156727579008 0.39999999999999997 -0.26787840265556273
v -0.49497474683058335 0.5499999999999999 -0.4949747468305832
v -0.49497474683058335 0.39999999999999997 -0.4949747468305832
v -0.26787840265556323 0.5499999999999999 -0.6467156727579005
v -0.26787840265556323 0.39999999999999997 -0.6467156727579005
v -1.2858791391047207e-16 0.5499999999999999 -0.7
v -1.2858791391047207e-16 0.39999999999999997 -0.7
v 0.267878402655563 0.5499999999999999 -0.6467156727579007
v 0.267878402655563 0.39999999999999997 -0.6467156727579007
v 0.4949747468305831 0.5499999999999999 -0.49497474683058335
v 0.4949747468305831 0.39999999999999997 -0.49497474683058335
v 0.6467156727579005 0.5499999999999999 -0.26787840265556323
v 0.6467156727579005 0.39999999999999997 -0.26787840265556323
v 0.4 2.7 0.0
v 0.68 0.5 0.0
v 0.36955181300451473 2.7 0.15307337294603593
v 0.6282380821076751 0.5 0.26022473400826107
v 0.28284271247461906 2.7 0.28284271247461906
v 0.4808326112068524 0.5 0.4808326112068524
v 0.15307337294603596 2.7 0.36955181300451473
v 0.2602247340082611 0.5 0.6282380821076751
v 2.4492935982947065e-17 2.7 0.4
v 4.163799117101001e-17 0.5 0.68
v -0.1530733729460359 2.7 0.36955181300451473
v -0.260224734008261 0.5 0.6282380821076751
v -0.282842712474619 2.7 0.28284271247461906
v -0.48083261120685233 0.5 0.4808326112068524
v -0.36955181300451473 2.7 0.15307337294603596
v -0.6282380821076751 0.5 0.2602247340082611
v -0.4 2.7 4.898587196589413e-17
v -0.68 0.5 8.327598234202002e-17
v -0.3695518130045148 2.7 -0.15307337294603587
v -0.6282380821076751 0.5 -0.260224734008261
v -0.28284271247461906 2.7 -0.282842712474619
v -0.48083261120685244 0.5 -0.48083261120685233
v -0.15307337294603615 2.7 -0.3695518130045146
v -0.26022473400826146 0.5 -0.6282380821076748
v -7.347880794884119e-17 2.7 -0.4
v -1.2491397351303002e-16 0.5 -0.68
v 0.153073372946036 2.7 -0.3695518130045147
v 0.26022473400826124 0.5 -0.628238082107675
v 0.28284271247461895 2.7 -0.28284271247461906
v 0.4808326112068522 0.5 -0.48083261120685244
v 0.3695518130045146 2.7 -0.15307337294603618
v 0.6282380821076748 0.5 -0.26022473400826146
v 0.0 2.83 0.0
v 0.0 2.6799999999999997 0.0
v 0.52 2.83 0.0
v 0.52 2.6799999999999997 0.0
v 0.4804173569058691 2.83 0.1989953848298467
v 0.4804173569058691 2.6799999999999997 0.1989953848298467
v 0.36769552621700474 2.83 0.36769552621700474
v 0.36769552621700474 2.6799999999999997 0.36769552621700474
v 0.19899538482984672 2.83 0.4804173569058691
v 0.19899538482984672 2.6799999999999997 0.4804173569058691
v 3.1840816777831187e-17 2.83 0.52
v 3.1840816777831187e-17 2.6799999999999997 0.52
v -0.19899538482984666 2.83 0.4804173569058691
v -0.19899538482984666 2.6799999999999997 0.4804173569058691
v -0.3676955262170047 2.83 0.36769552621700474
v -0.3676955262170047 2.6799999999999997 0.36769552621700474
v -0.4804173569058691 2.83 0.19899538482984674
v -0.4804173569058691 2.6799999999999997 0.19899538482984674
v -0.52 2.83 6.368163355566237e-17
v -0.52 2.6799999999999997 6.368163355566237e-17
v -0.4804173569058692 2.83 -0.19899538482984663
v -0.4804173569058692 2.6799999999999997 -0.19899538482984663
v -0.3676955262170048 2.83 -0.3676955262170047
v -0.3676955262170048 2.6799999999999997 -0.3676955262170047
v -0.198995384829847 2.83 -0.480417356905869
v -0.198995384829847 2.6799999999999997 -0.480417356905869
v -9.552245033349355e-17 2.83 -0.52
v -9.552245033349355e-17 2.6799999999999997 -0.52
v 0.1989953848298468 2.83 -0.48041735690586906
v 0.1989953848298468 2.6799999999999997 -0.48041735690586906
v 0.36769552621700463 2.83 -0.3676955262170048
v 0.36769552621700463 2.6799999999999997 -0.3676955262170048
v 0.480417356905869 2.83 -0.19899538482984702
v 0.480417356905869 2.6799999999999997 -0.19899538482984702
v 0.55 3.4099999999999997 0.0
v 0.4 2.81 0.0
v 0.5081337428812077 3.4099999999999997 0.2104758878007994
v 0.36955181300451473 2.81 0.15307337294603593
v 0.3889087296526012 3.4099999999999997 0.3889087296526012
v 0.28284271247461906 2.81 0.28284271247461906
v 0.21047588780079943 3.4099999999999997 0.5081337428812077
v 0.15307337294603596 2.81 0.36955181300451473
v 3.367778697655222e-17 3.4099999999999997 0.55
v 2.4492935982947065e-17 2.81 0.4
v -0.21047588780079937 3.4099999999999997 0.5081337428812077
v -0.1530733729460359 2.81 0.36955181300451473
v -0.38890872965260115 3.4099999999999997 0.3889087296526012
v -0.282842712474619 2.81 0.28284271247461906
v -0.5081337428812077 3.4099999999999997 0.21047588780079945
v -0.36955181300451473 2.81 0.15307337294603596
v -0.55 3.4099999999999997 6.735557395310444e-17
v -0.4 2.81 4.898587196589413e-17
v -0.5081337428812078 3.4099999999999997 -0.21047588780079934
v -0.3695518130045148 2.81 -0.15307337294603587
v -0.38890872965260126 3.4099999999999997 -0.38890872965260115
v -0.28284271247461906 2.81 -0.282842712474619
v -0.2104758878007997 3.4099999999999997 -0.5081337428812076
v -0.15307337294603615 2.81 -0.3695518130045146
v -1.0103336092965664e-16 3.4099999999999997 -0.55
v -7.347880794884119e-17 2.81 -0.4
v 0.2104758878007995 3.4099999999999997 -0.5081337428812077
v 0.153073372946036 2.81 -0.3695518130045147
v 0.3889087296526011 3.4099999999999997 -0.38890872965260126
v 0.28284271247461895 2.81 -0.28284271247461906
v 0.5081337428812076 3.4099999999999997 -0.21047588780079973
v 0.3695518130045146 2.81 -0.15307337294603618
v 0.0 3.435 0.0
v 0.0 3.3850000000000002 0.0
v 0.55 3.435 0.0
v 0.55 3.3850000000000002 0.0
v 0.5081337428812077 3.435 0.2104758878007994
v 0.5081337428812077 3.3850000000000002 0.2104758878007994
v 0.3889087296526012 3.435 0.3889087296526012
v 0.3889087296526012 3.3850000000000002 0.3889087296526012
v 0.21047588780079943 3.435 0.5081337428812077
v 0.21047588780079943 3.3850000000000002 0.5081337428812077
v 3.367778697655222e-17 3.435 0.55
v 3.367778697655222e-17 3.3850000000000002 0.55
v -0.21047588780079937 3.435 0.5081337428812077
v -0.21047588780079937 3.3850000000000002 0.5081337428812077
v -0.38890872965260115 3.435 0.3889087296526012
v -0.38890872965260115 3.3850000000000002 0.3889087296526012
v -0.5081337428812077 3.435 0.21047588780079945
v -0.5081337428812077 3.3850000000000002 0.21047588780079945
v -0.55 3.435 6.735557395310444e-17
v -0.55 3.3850000000000002 6.735557395310444e-17
v -0.5081337428812078 3.435 -0.21047588780079934
v -0.5081337428812078 3.3850000000000002 -0.21047588780079934
v -0.38890872965260126 3.435 -0.38890872965260115
v -0.38890872965260126 3.3850000000000002 -0.38890872965260115
v -0.2104758878007997 3.435 -0.5081337428812076
v -0.2104758878007997 3.3850000000000002 -0.5081337428812076
v -1.0103336092965664e-16 3.435 -0.55
v -1.0103336092965664e-16 3.3850000000000002 -0.55
v 0.2104758878007995 3.435 -0.5081337428812077
v 0.2104758878007995 3.3850000000000002 -0.5081337428812077
v 0.3889087296526011 3.435 -0.38890872965260126
v 0.3889087296526011 3.3850000000000002 -0.38890872965260126
v 0.5081337428812076 3.435 -0.21047588780079973
v 0.5081337428812076 3.3850000000000002 -0.21047588780079973
v -0.06 3.375 0.06
v 0.06 3.375 0.06
v 0.06 3.825 0.06
v -0.06 3.825 0.06
v -0.06 3.375 -0.06
v 0.06 3.375 -0.06
v 0.06 3.825 -0.06
v -0.06 3.825 -0.06
v -0.2 3.62 0.06
v 0.2 3.62 0.06
v 0.2 3.74 0.06
v -0.2 3.74 0.06
v -0.2 3.62 -0.06
v 0.2 3.62 -0.06
v 0.2 3.74 -0.06
v -0.2 3.74 -0.06
f 1 2 3
f 1 3 4
f 1 4 5
f 1 5 6
f 1 6 7
f 1 7 8
f 1 8 9
f 1 9 10
f 1 10 11
f 1 11 12
f 1 12 13
f 1 13 14
f 1 14 15
f 1 15 16
f 1 16 17
f 1 17 2
f 18 20 22
f 19 23 21
f 20 21 22
f 22 21 23
f 18 22 24
f 19 25 23
f 22 23 24
f 24 23 25
f 18 24 26
f 19 27 25
f 24 25 26
f 26 25 27
f 18 26 28
f 19 29 27
f 26 27 28
f 28 27 29
f 18 28 30
f 19 31 29
f 28 29 30
f 30 29 31
f 18 30 32
f 19 33 31
f 30 31 32
f 32 31 33
f 18 32 34
f 19 35 33
f 32 33 34
f 34 33 35
f 18 34 36
f 19 37 35
f 34 35 36
f 36 35 37
f 18 36 38
f 19 39 37
f 36 37 38
f 38 37 39
f 18 38 40
f 19 41 39
f 38 39 40
f 40 39 41
f 18 40 42
f 19 43 41
f 40 41 42
f 42 41 43
f 18 42 44
f 19 45 43
f 42 43 44
f 44 43 45
f 18 44 46
f 19 47 45
f 44 45 46
f 46 45 47
f 18 46 48
f 19 49 47
f 46 47 48
f 48 47 49
f 18 48 50
f 19 51 49
f 48 49 50
f 50 49 51
f 18 50 20
f 19 21 51
f 50 51 20
f 20 51 21
f 52 53 54
f 54 53 55
f 54 55 56
f 56 55 57
f 56 57 58
f 58 57 59
f 58 59 60
f 60 59 61
f 60 61 62
f 62 61 63
f 62 63 64
f 64 63 65
f 64 65 66
f 66 65 67
f 66 67 68
f 68 67 69
f 68 69 70
f 70 69 71
f 70 71 72
f 72 71 73
f 72 73 74
f 74 73 75
f 74 75 76
f 76 75 77
f 76 77 78
f 78 77 79
f 78 79 80
f 80 79 81
f 80 81 82
f 82 81 83
f 82 83 52
f 52 83 53
f 84 86 88
f 85 89 87
f 86 87 88
f 88 87 89
f 84 88 90
f 85 91 89
f 88 89 90
f 90 89 91
f 84 90 92
f 85 93 91
f 90 91 92
f 92 91 93
f 84 92 94
f 85 95 93
f 92 93 94
f 94 93 95
f 84 94 96
f 85 97 95
f 94 95 96
f 96 95 97
f 84 96 98
f 85 99 97
f 96 97 98
f 98 97 99
f 84 98 100
f 85 101 99
f 98 99 100
f 100 99 101
f 84 100 102
f 85 103 101
f 100 101 102
f 102 101 103
f 84 102 104
f 85 105 103
f 102 103 104
f 104 103 105
f 84 104 106
f 85 107 105
f 104 105 106
f 106 105 107
f 84 106 108
f 85 109 107
f 106 107 108
f 108 107 109
f 84 108 110
f 85 111 109
f 108 109 110
f 110 109 111
f 84 110 112
f 85 113 111
f 110 111 112
f 112 111 113
f 84 112 114
f 85 115 113
f 112 113 114
f 114 113 115
f 84 114 116
f 85 117 115
f 114 115 116
f 116 115 117
f 84 116 86
f 85 87 117
f 116 117 86
f 86 117 87
f 118 119 120
f 120 119 121
f 120 121 122
f 122 121 123
f 122 123 124
f 124 123 125
f 124 125 126
f 126 125 127
f 126 127 128
f 128 127 129
f 128 129 130
f 130 129 131
f 130 131 132
f 132 131 133
f 132 133 134
f 134 133 135
f 134 135 136
f 136 135 137
f 136 137 138
f 138 137 139
f 138 139 140
f 140 139 141
f 140 141 142
f 142 141 143
f 142 143 144
f 144 143 145
f 144 145 146
f 146 145 147
f 146 147 148
f 148 147 149
f 148 149 118
f 118 149 119
f 150 152 154
f 151 155 153
f 152 153 154
f 154 153 155
f 150 154 156
f 151 157 155
f 154 155 156
f 156 155 157
f 150 156 158
f 151 159 157
f 156 157 158
f 158 157 159
f 150 158 160
f 151 161 159
f 158 159 160
f 160 159 161
f 150 160 162
f 151 163 161
f 160 161 162
f 162 161 163
f 150 162 164
f 151 165 163
f 162 163 164
f 164 163 165
f 150 164 166
f 151 167 165
f 164 165 166
f 166 165 167
f 150 166 168
f 151 169 167
f 166 167 168
f 168 167 169
f 150 168 170
f 151 171 169
f 168 169 170
f 170 169 171
f 150 170 172
f 151 173 171
f 170 171 172
f 172 171 173
f 150 172 174
f 151 175 173
f 172 173 174
f 174 173 175
f 150 174 176
f 151 177 175
f 174 175 176
f 176 175 177
f 150 176 178
f 151 179 177
f 176 177 178
f 178 177 179
f 150 178 180
f 151 181 179
f 178 179 180
f 180 179 181
f 150 180 182
f 151 183 181
f 180 181 182
f 182 181 183
f 150 182 152
f 151 153 183
f 182 183 152
f 152 183 153
f 184 185 186
f 186 185 187
f 186 187 188
f 188 187 189
f 188 189 190
f 190 189 191
f 190 191 192
f 192 191 193
f 192 193 194
f 194 193 195
f 194 195 196
f 196 195 197
f 196 197 198
f 198 197 199
f 198 199 200
f 200 199 201
f 200 201 202
f 202 201 203
f 202 203 204
f 204 203 205
f 204 205 206
f 206 205 207
f 206 207 208
f 208 207 209
f 208 209 210
f 210 209 211
f 210 211 212
f 212 211 213
f 212 213 214
f 214 213 215
f 214 215 184
f 184 215 185
f 216 218 220
f 217 221 219
f 218 219 220
f 220 219 221
f 216 220 222
f 217 223 221
f 220 221 222
f 222 221 223
f 216 222 224
f 217 225 223
f 222 223 224
f 224 223 225
f 216 224 226
f 217 227 225
f 224 225 226
f 226 225 227
f 216 226 228
f 217 229 227
f 226 227 228
f 228 227 229
f 216 228 230
f 217 231 229
f 228 229 230
f 230 229 231
f 216 230 232
f 217 233 231
f 230 231 232
f 232 231 233
f 216 232 234
f 217 235 233
f 232 233 234
f 234 233 235
f 216 234 236
f 217 237 235
f 234 235 236
f 236 235 237
f 216 236 238
f 217 239 237
f 236 237 238
f 238 237 239
f 216 238 240
f 217 241 239
f 238 239 240
f 240 239 241
f 216 240 242
f 217 243 241
f 240 241 242
f 242 241 243
f 216 242 244
f 217 245 243
f 242 243 244
f 244 243 245
f 216 244 246
f 217 247 245
f 244 245 246
f 246 245 247
f 216 246 248
f 217 249 247
f 246 247 248
f 248 247 249
f 216 248 218
f 217 219 249
f 248 249 218
f 218 249 219
f 250 251 252
f 250 252 253
f 255 254 257
f 255 257 256
f 254 250 253
f 254 253 257
f 251 255 256
f 251 256 252
f 253 252 256
f 253 256 257
f 254 255 251
f 254 251 250
f 258 259 260
f 258 260 261
f 263 262 265
f 263 265 264
f 262 258 261
f 262 261 265
f 259 263 264
f 259 264 260
f 261 260 264
f 261 264 265
f 262 263 259
f 262 259 258
